NahuatlOne.v3.ufo
<glyph name="uni0000" format="1">
  <advance width="1079"/>
  <unicode hex="0000"/>
  <outline>
    <contour>
      <point x="90" y="904" type="line"/>
      <point x="989" y="904" type="line"/>
      <point x="989" y="0" type="line"/>
      <point x="90" y="0" type="line"/>
    </contour>
    <contour>
      <point x="237" y="756" type="line"/>
      <point x="237" y="147" type="line"/>
      <point x="842" y="147" type="line"/>
      <point x="842" y="756" type="line"/>
    </contour>
    <contour>
      <point x="412" y="666" type="line"/>
      <point x="540" y="538" type="line"/>
      <point x="667" y="666" type="line"/>
      <point x="753" y="579" type="line"/>
      <point x="626" y="452" type="line"/>
      <point x="753" y="325" type="line"/>
      <point x="667" y="238" type="line"/>
      <point x="540" y="365" type="line"/>
      <point x="412" y="238" type="line"/>
      <point x="326" y="325" type="line"/>
      <point x="453" y="452" type="line"/>
      <point x="326" y="579" type="line"/>
    </contour>
  </outline>
</glyph>
<glyph name="exclam" format="1">
  <advance width="432"/>
  <unicode hex="0021"/>
  <outline>
    <contour>
      <point x="216" y="255" type="curve" smooth="yes"/>
      <point x="286" y="255"/>
      <point x="342" y="199"/>
      <point x="342" y="129" type="curve" smooth="yes"/>
      <point x="342" y="59"/>
      <point x="286" y="3"/>
      <point x="216" y="3" type="curve" smooth="yes"/>
      <point x="146" y="3"/>
      <point x="90" y="59"/>
      <point x="90" y="129" type="curve" smooth="yes"/>
      <point x="90" y="199"/>
      <point x="146" y="255"/>
    </contour>
    <contour>
      <point x="102" y="1548" type="line"/>
      <point x="330" y="1548" type="line"/>
      <point x="288" y="435" type="line"/>
      <point x="144" y="435" type="line"/>
    </contour>
  </outline>
</glyph>
<glyph name="plus" format="1">
  <advance width="1082"/>
  <unicode hex="002B"/>
  <outline>
    <contour>
      <point x="468" y="924" type="line"/>
      <point x="615" y="924" type="line"/>
      <point x="615" y="547" type="line"/>
      <point x="992" y="547" type="line"/>
      <point x="992" y="400" type="line"/>
      <point x="615" y="400" type="line"/>
      <point x="615" y="22" type="line"/>
      <point x="468" y="22" type="line"/>
      <point x="468" y="400" type="line"/>
      <point x="90" y="400" type="line"/>
      <point x="90" y="547" type="line"/>
      <point x="468" y="547" type="line"/>
    </contour>
  </outline>
</glyph>
<glyph name="hyphen" format="1">
  <advance width="1082"/>
  <unicode hex="002D"/>
  <outline>
    <contour>
      <point x="90" y="547" type="line"/>
      <point x="992" y="547" type="line"/>
      <point x="992" y="400" type="line"/>
      <point x="90" y="400" type="line"/>
    </contour>
  </outline>
</glyph>
<glyph name="seven" format="1">
  <advance width="1251"/>
  <unicode hex="0037"/>
  <outline>
    <contour>
      <point x="90" y="1278" type="line"/>
      <point x="1161" y="1278" type="line"/>
      <point x="1055" y="1156" type="line" smooth="yes"/>
      <point x="777" y="837"/>
      <point x="497" y="439"/>
      <point x="410" y="0" type="curve"/>
      <point x="253" y="4" type="line"/>
      <point x="337" y="427"/>
      <point x="590" y="825"/>
      <point x="841" y="1131" type="curve"/>
      <point x="90" y="1131" type="line"/>
    </contour>
  </outline>
</glyph>
<glyph name="x" format="1">
  <advance width="921"/>
  <unicode hex="0078"/>
  <outline>
    <contour>
      <point x="475" y="-70" type="move" name="subjoined_consonants"/>
    </contour>
    <contour>
      <point x="458" y="1020" type="move" name="vowel_signs"/>
    </contour>
    <contour>
      <point x="194" y="844" type="line"/>
      <point x="461" y="577" type="line"/>
      <point x="728" y="844" type="line"/>
      <point x="832" y="740" type="line"/>
      <point x="565" y="473" type="line"/>
      <point x="832" y="206" type="line"/>
      <point x="728" y="102" type="line"/>
      <point x="461" y="369" type="line"/>
      <point x="194" y="102" type="line"/>
      <point x="90" y="206" type="line"/>
      <point x="357" y="473" type="line"/>
      <point x="90" y="740" type="line"/>
    </contour>
  </outline>
</glyph>
<glyph name="questiondown" format="1">
  <advance width="1078"/>
  <unicode hex="00BF"/>
  <outline>
    <contour>
      <point x="540" y="667" type="curve" smooth="yes"/>
      <point x="610" y="667"/>
      <point x="667" y="611"/>
      <point x="667" y="541" type="curve" smooth="yes"/>
      <point x="667" y="471"/>
      <point x="610" y="415"/>
      <point x="540" y="415" type="curve" smooth="yes"/>
      <point x="470" y="415"/>
      <point x="414" y="471"/>
      <point x="414" y="541" type="curve" smooth="yes"/>
      <point x="414" y="611"/>
      <point x="470" y="667"/>
    </contour>
    <contour>
      <point x="534" y="-875" type="curve" smooth="yes"/>
      <point x="294.745" y="-875"/>
      <point x="90" y="-707.263"/>
      <point x="90" y="-461" type="curve" smooth="yes"/>
      <point x="90" y="-361"/>
      <point x="120" y="-282"/>
      <point x="165" y="-224" type="curve" smooth="yes"/>
      <point x="210" y="-166"/>
      <point x="265" y="-129"/>
      <point x="314" y="-98" type="curve" smooth="yes"/>
      <point x="363" y="-67"/>
      <point x="404" y="-42"/>
      <point x="430" y="-14" type="curve" smooth="yes"/>
      <point x="456" y="14"/>
      <point x="469" y="39"/>
      <point x="469" y="93" type="curve" smooth="yes"/>
      <point x="469" y="235" type="line"/>
      <point x="616" y="235" type="line"/>
      <point x="616" y="93" type="line" smooth="yes"/>
      <point x="616" y="6"/>
      <point x="582" y="-65"/>
      <point x="537" y="-114" type="curve" smooth="yes"/>
      <point x="459.113" y="-198.81"/>
      <point x="344.92" y="-230.412"/>
      <point x="281" y="-314" type="curve" smooth="yes"/>
      <point x="255" y="-348"/>
      <point x="237" y="-388"/>
      <point x="237" y="-461" type="curve" smooth="yes"/>
      <point x="237" y="-627.107"/>
      <point x="372.814" y="-728"/>
      <point x="534" y="-728" type="curve" smooth="yes"/>
      <point x="688" y="-728"/>
      <point x="810" y="-613"/>
      <point x="853" y="-513" type="curve"/>
      <point x="988" y="-571" type="line"/>
      <point x="923" y="-723"/>
      <point x="757" y="-875"/>
    </contour>
  </outline>
</glyph>
<glyph name="quotedblleft" format="1">
  <advance width="905"/>
  <unicode hex="201C"/>
  <outline>
    <contour>
      <point x="813.237" y="1155.45" type="curve" smooth="yes"/>
      <point x="813.237" y="1063.76"/>
      <point x="736.257" y="1001.98"/>
      <point x="659.676" y="1001.98" type="curve" smooth="yes"/>
      <point x="658.784" y="1001.98"/>
      <point x="657.892" y="1001.98"/>
      <point x="657" y="1002" type="curve" smooth="yes"/>
      <point x="559.807" y="1002"/>
      <point x="499.068" y="1082.31"/>
      <point x="499.068" y="1182.22" type="curve" smooth="yes"/>
      <point x="499.068" y="1310.36"/>
      <point x="615.659" y="1498.52"/>
      <point x="747" y="1560" type="curve"/>
      <point x="816" y="1525" type="line"/>
      <point x="741" y="1449"/>
      <point x="710" y="1376"/>
      <point x="696" y="1304" type="curve"/>
      <point x="767.034" y="1284.63"/>
      <point x="813.237" y="1224.84"/>
    </contour>
    <contour>
      <point x="404.442" y="1156.24" type="curve" smooth="yes"/>
      <point x="404.442" y="1064.59"/>
      <point x="328.358" y="1001.98"/>
      <point x="251.676" y="1001.98" type="curve" smooth="yes"/>
      <point x="250.784" y="1001.98"/>
      <point x="249.892" y="1001.98"/>
      <point x="249" y="1002" type="curve" smooth="yes"/>
      <point x="151.207" y="1002"/>
      <point x="90.068" y="1081.13"/>
      <point x="90.068" y="1182.22" type="curve" smooth="yes"/>
      <point x="90.068" y="1310.36"/>
      <point x="206.659" y="1498.52"/>
      <point x="338" y="1560" type="curve"/>
      <point x="407" y="1525" type="line"/>
      <point x="332" y="1449"/>
      <point x="301" y="1376"/>
      <point x="287" y="1304" type="curve"/>
      <point x="358.477" y="1284.51"/>
      <point x="404.442" y="1226.25"/>
    </contour>
  </outline>
</glyph>
<glyph name="uni25CC_DOTTED_CIRCLE" format="1">
  <advance width="1095"/>
  <unicode hex="25CC"/>
  <outline>
    <contour>
      <point x="549" y="-70" type="move" name="subjoined_consonants"/>
    </contour>
    <contour>
      <point x="549" y="1020" type="move" name="vowel_signs"/>
    </contour>
    <contour>
      <point x="548" y="937" type="curve" smooth="yes"/>
      <point x="588" y="937"/>
      <point x="621" y="904"/>
      <point x="621" y="864" type="curve" smooth="yes"/>
      <point x="621" y="824"/>
      <point x="588" y="791"/>
      <point x="548" y="791" type="curve" smooth="yes"/>
      <point x="508" y="791"/>
      <point x="475" y="824"/>
      <point x="475" y="864" type="curve" smooth="yes"/>
      <point x="475" y="904"/>
      <point x="508" y="937"/>
    </contour>
    <contour>
      <point x="242" y="789" type="curve" smooth="yes"/>
      <point x="242" y="825"/>
      <point x="275" y="862"/>
      <point x="314" y="862" type="curve" smooth="yes"/>
      <point x="315" y="862" type="line" smooth="yes"/>
      <point x="353" y="862"/>
      <point x="388" y="830"/>
      <point x="388" y="789" type="curve" smooth="yes"/>
      <point x="388" y="751"/>
      <point x="356" y="716"/>
      <point x="315" y="716" type="curve" smooth="yes"/>
      <point x="278" y="716"/>
      <point x="242" y="749"/>
    </contour>
    <contour>
      <point x="711" y="787" type="curve" smooth="yes"/>
      <point x="711" y="827"/>
      <point x="745" y="858"/>
      <point x="781" y="860" type="curve" smooth="yes"/>
      <point x="782" y="860"/>
      <point x="783" y="860"/>
      <point x="784" y="860" type="curve" smooth="yes"/>
      <point x="826" y="860"/>
      <point x="857" y="826"/>
      <point x="857" y="787" type="curve" smooth="yes"/>
      <point x="857" y="746"/>
      <point x="822" y="714"/>
      <point x="784" y="714" type="curve" smooth="yes"/>
      <point x="744" y="714"/>
      <point x="711" y="750"/>
    </contour>
    <contour>
      <point x="90" y="585" type="curve" smooth="yes"/>
      <point x="90" y="627"/>
      <point x="127" y="658"/>
      <point x="163" y="658" type="curve" smooth="yes"/>
      <point x="164" y="658"/>
      <point x="165" y="658"/>
      <point x="166" y="658" type="curve" smooth="yes"/>
      <point x="207" y="658"/>
      <point x="236" y="620"/>
      <point x="236" y="585" type="curve" smooth="yes"/>
      <point x="236" y="543"/>
      <point x="199" y="512"/>
      <point x="163" y="512" type="curve" smooth="yes"/>
      <point x="122" y="512"/>
      <point x="90" y="550"/>
    </contour>
    <contour>
      <point x="860" y="584" type="curve" smooth="yes"/>
      <point x="860" y="619"/>
      <point x="891" y="657"/>
      <point x="932" y="657" type="curve" smooth="yes"/>
      <point x="933" y="657" type="line" smooth="yes"/>
      <point x="968" y="657"/>
      <point x="1006" y="625"/>
      <point x="1006" y="584" type="curve" smooth="yes"/>
      <point x="1006" y="548"/>
      <point x="975" y="511"/>
      <point x="933" y="511" type="curve" smooth="yes"/>
      <point x="896" y="511"/>
      <point x="860" y="541"/>
    </contour>
    <contour>
      <point x="90" y="336" type="curve" smooth="yes"/>
      <point x="90" y="371"/>
      <point x="122" y="409"/>
      <point x="162" y="409" type="curve" smooth="yes"/>
      <point x="163" y="409" type="line" smooth="yes"/>
      <point x="198" y="409"/>
      <point x="236" y="377"/>
      <point x="236" y="336" type="curve" smooth="yes"/>
      <point x="236" y="300"/>
      <point x="205" y="263"/>
      <point x="163" y="263" type="curve" smooth="yes"/>
      <point x="127" y="263"/>
      <point x="90" y="294"/>
    </contour>
    <contour>
      <point x="859" y="336" type="curve" smooth="yes"/>
      <point x="859" y="377"/>
      <point x="897" y="409"/>
      <point x="932" y="409" type="curve" smooth="yes"/>
      <point x="933" y="409"/>
      <point x="934" y="409"/>
      <point x="935" y="409" type="curve" smooth="yes"/>
      <point x="975" y="409"/>
      <point x="1005" y="370"/>
      <point x="1005" y="336" type="curve" smooth="yes"/>
      <point x="1005" y="293"/>
      <point x="969" y="263"/>
      <point x="932" y="263" type="curve" smooth="yes"/>
      <point x="890" y="263"/>
      <point x="859" y="300"/>
    </contour>
    <contour>
      <point x="239" y="131" type="curve" smooth="yes"/>
      <point x="239" y="171"/>
      <point x="273" y="202"/>
      <point x="309" y="204" type="curve" smooth="yes"/>
      <point x="310" y="204"/>
      <point x="311" y="204"/>
      <point x="312" y="204" type="curve" smooth="yes"/>
      <point x="353" y="204"/>
      <point x="385" y="169"/>
      <point x="385" y="131" type="curve" smooth="yes"/>
      <point x="385" y="91"/>
      <point x="349" y="58"/>
      <point x="312" y="58" type="curve" smooth="yes"/>
      <point x="271" y="58"/>
      <point x="239" y="93"/>
    </contour>
    <contour>
      <point x="711" y="130" type="curve" smooth="yes"/>
      <point x="711" y="167"/>
      <point x="742" y="203"/>
      <point x="782" y="203" type="curve" smooth="yes"/>
      <point x="784" y="203" type="line" smooth="yes"/>
      <point x="821" y="203"/>
      <point x="857" y="170"/>
      <point x="857" y="130" type="curve" smooth="yes"/>
      <point x="857" y="92"/>
      <point x="825" y="57"/>
      <point x="784" y="57" type="curve" smooth="yes"/>
      <point x="746" y="57"/>
      <point x="711" y="88"/>
    </contour>
    <contour>
      <point x="548" y="129" type="curve" smooth="yes"/>
      <point x="588" y="129"/>
      <point x="621" y="96"/>
      <point x="621" y="56" type="curve" smooth="yes"/>
      <point x="621" y="16"/>
      <point x="588" y="-17"/>
      <point x="548" y="-17" type="curve" smooth="yes"/>
      <point x="508" y="-17"/>
      <point x="475" y="16"/>
      <point x="475" y="56" type="curve" smooth="yes"/>
      <point x="475" y="96"/>
      <point x="508" y="129"/>
    </contour>
  </outline>
</glyph>
<glyph name="aa.vs" format="1">
  <advance width="0"/>
  <unicode hex="EDA0"/>
  <outline>
    <contour>
      <point x="-665" y="1020" type="move" name="_vowel_signs"/>
    </contour>
    <contour>
      <point x="-697" y="1569" type="curve" smooth="yes"/>
      <point x="-659" y="1569"/>
      <point x="-623" y="1560"/>
      <point x="-591" y="1545" type="curve"/>
      <point x="-448" y="1545" type="line"/>
      <point x="-448" y="1274" type="line" smooth="yes"/>
      <point x="-448" y="1243"/>
      <point x="-421" y="1217"/>
      <point x="-397" y="1212" type="curve"/>
      <point x="-430" y="1069" type="line"/>
      <point x="-471" y="1079"/>
      <point x="-508" y="1102"/>
      <point x="-536" y="1132" type="curve"/>
      <point x="-579" y="1095"/>
      <point x="-636" y="1073"/>
      <point x="-697" y="1073" type="curve" smooth="yes"/>
      <point x="-833" y="1073"/>
      <point x="-945" y="1185"/>
      <point x="-945" y="1321" type="curve" smooth="yes"/>
      <point x="-945" y="1457"/>
      <point x="-833" y="1569"/>
    </contour>
    <contour>
      <point x="-697" y="1422" type="curve" smooth="yes"/>
      <point x="-754" y="1422"/>
      <point x="-798" y="1378"/>
      <point x="-798" y="1321" type="curve" smooth="yes"/>
      <point x="-798" y="1264"/>
      <point x="-754" y="1220"/>
      <point x="-697" y="1220" type="curve" smooth="yes"/>
      <point x="-640" y="1220"/>
      <point x="-596" y="1264"/>
      <point x="-596" y="1321" type="curve" smooth="yes"/>
      <point x="-596" y="1378"/>
      <point x="-640" y="1422"/>
    </contour>
  </outline>
</glyph>
<glyph name="ee.vs" format="1">
  <advance width="0"/>
  <unicode hex="EDA1"/>
  <outline>
    <contour>
      <point x="-390" y="1020" type="move" name="_vowel_signs"/>
    </contour>
    <contour>
      <point x="-366" y="1574" type="curve" smooth="yes"/>
      <point x="-166.58" y="1574"/>
      <point x="-16.1981" y="1489.69"/>
      <point x="-16.1981" y="1309.1" type="curve" smooth="yes"/>
      <point x="-16.1981" y="1294.99"/>
      <point x="-17.1159" y="1280.29"/>
      <point x="-19" y="1265" type="curve"/>
      <point x="-41.9357" y="1148.56"/>
      <point x="-147.358" y="1071.8"/>
      <point x="-260.443" y="1071.8" type="curve" smooth="yes"/>
      <point x="-275.551" y="1071.8"/>
      <point x="-290.796" y="1073.17"/>
      <point x="-306" y="1076" type="curve" smooth="yes"/>
      <point x="-415.701" y="1096.85"/>
      <point x="-496.633" y="1196.61"/>
      <point x="-496.633" y="1314.92" type="curve" smooth="yes"/>
      <point x="-496.633" y="1327.1"/>
      <point x="-495.774" y="1339.49"/>
      <point x="-494" y="1352" type="curve" smooth="yes"/>
      <point x="-491" y="1373"/>
      <point x="-485" y="1394"/>
      <point x="-476" y="1414" type="curve"/>
      <point x="-524" y="1398"/>
      <point x="-563" y="1367"/>
      <point x="-593" y="1298" type="curve" smooth="yes"/>
      <point x="-616.684" y="1243.53"/>
      <point x="-619.177" y="1180.33"/>
      <point x="-619.177" y="1124.15" type="curve" smooth="yes"/>
      <point x="-619.177" y="1109.17"/>
      <point x="-619" y="1094.68"/>
      <point x="-619" y="1081" type="curve"/>
      <point x="-766" y="1081" type="line"/>
      <point x="-766.018" y="1083.42"/>
      <point x="-766.027" y="1085.83"/>
      <point x="-766.027" y="1088.24" type="curve" smooth="yes"/>
      <point x="-766.027" y="1354.01"/>
      <point x="-656.368" y="1574"/>
    </contour>
    <contour>
      <point x="-258" y="1414" type="curve" smooth="yes"/>
      <point x="-315" y="1414"/>
      <point x="-361" y="1368"/>
      <point x="-361" y="1311" type="curve" smooth="yes"/>
      <point x="-361" y="1254"/>
      <point x="-315" y="1207"/>
      <point x="-258" y="1207" type="curve" smooth="yes"/>
      <point x="-201" y="1207"/>
      <point x="-154" y="1254"/>
      <point x="-154" y="1311" type="curve" smooth="yes"/>
      <point x="-154" y="1368"/>
      <point x="-201" y="1414"/>
    </contour>
  </outline>
</glyph>
<glyph name="ii.vs" format="1">
  <advance width="0"/>
  <unicode hex="EDA2"/>
  <outline>
    <contour>
      <point x="-690" y="1020" type="move" name="_vowel_signs"/>
    </contour>
    <contour>
      <point x="-418" y="1564" type="curve"/>
      <point x="-418" y="1417" type="line"/>
      <point x="-469" y="1417"/>
      <point x="-524" y="1397"/>
      <point x="-562" y="1367" type="curve" smooth="yes"/>
      <point x="-600" y="1337"/>
      <point x="-621" y="1299"/>
      <point x="-621" y="1255" type="curve" smooth="yes"/>
      <point x="-621" y="1083" type="line"/>
      <point x="-768" y="1083" type="line"/>
      <point x="-768" y="1255" type="line" smooth="yes"/>
      <point x="-768" y="1349"/>
      <point x="-719" y="1429"/>
      <point x="-653" y="1482" type="curve" smooth="yes"/>
      <point x="-587" y="1535"/>
      <point x="-504" y="1564"/>
    </contour>
  </outline>
</glyph>
<glyph name="oo.vs" format="1">
  <advance width="0"/>
  <unicode hex="EDA3"/>
  <outline>
    <contour>
      <point x="-707" y="1020" type="move" name="_vowel_signs"/>
    </contour>
    <contour>
      <point x="-710" y="1569" type="curve" smooth="yes"/>
      <point x="-574" y="1569"/>
      <point x="-462" y="1457"/>
      <point x="-462" y="1321" type="curve" smooth="yes"/>
      <point x="-462" y="1185"/>
      <point x="-574" y="1073"/>
      <point x="-710" y="1073" type="curve" smooth="yes"/>
      <point x="-846" y="1073"/>
      <point x="-958" y="1185"/>
      <point x="-958" y="1321" type="curve" smooth="yes"/>
      <point x="-958" y="1457"/>
      <point x="-846" y="1569"/>
    </contour>
    <contour>
      <point x="-710" y="1422" type="curve" smooth="yes"/>
      <point x="-767" y="1422"/>
      <point x="-811" y="1378"/>
      <point x="-811" y="1321" type="curve" smooth="yes"/>
      <point x="-811" y="1264"/>
      <point x="-767" y="1220"/>
      <point x="-710" y="1220" type="curve" smooth="yes"/>
      <point x="-653" y="1220"/>
      <point x="-609" y="1264"/>
      <point x="-609" y="1321" type="curve" smooth="yes"/>
      <point x="-609" y="1378"/>
      <point x="-653" y="1422"/>
    </contour>
  </outline>
</glyph>
<glyph name="uu.vs" format="1">
  <advance width="0"/>
  <unicode hex="EDA4"/>
  <outline>
    <contour>
      <point x="-714" y="1020" type="move" name="_vowel_signs"/>
    </contour>
    <contour>
      <point x="-963" y="1433" type="line"/>
      <point x="-816" y="1433" type="line"/>
      <point x="-816" y="1321" type="line" smooth="yes"/>
      <point x="-816" y="1264"/>
      <point x="-772" y="1220"/>
      <point x="-715" y="1220" type="curve" smooth="yes"/>
      <point x="-658" y="1220"/>
      <point x="-614" y="1264"/>
      <point x="-614" y="1321" type="curve" smooth="yes"/>
      <point x="-614" y="1433" type="line"/>
      <point x="-467" y="1433" type="line"/>
      <point x="-467" y="1321" type="line" smooth="yes"/>
      <point x="-467" y="1185"/>
      <point x="-579" y="1073"/>
      <point x="-715" y="1073" type="curve" smooth="yes"/>
      <point x="-851" y="1073"/>
      <point x="-963" y="1185"/>
      <point x="-963" y="1321" type="curve" smooth="yes"/>
    </contour>
  </outline>
</glyph>
<glyph name="ia.vs" format="1">
  <advance width="0"/>
  <unicode hex="EDA5"/>
  <outline>
    <contour>
      <point x="-735" y="1020" type="move" name="_vowel_signs"/>
    </contour>
    <contour>
      <point x="-871" y="1571" type="line"/>
      <point x="-519" y="1571" type="line" smooth="yes"/>
      <point x="-476" y="1571"/>
      <point x="-429" y="1560"/>
      <point x="-389" y="1529" type="curve" smooth="yes"/>
      <point x="-350" y="1498"/>
      <point x="-322" y="1444"/>
      <point x="-322" y="1384" type="curve" smooth="yes"/>
      <point x="-322" y="1321"/>
      <point x="-355" y="1267"/>
      <point x="-395" y="1239" type="curve" smooth="yes"/>
      <point x="-435" y="1211"/>
      <point x="-477" y="1204"/>
      <point x="-514" y="1204" type="curve" smooth="yes"/>
      <point x="-603" y="1204" type="line" smooth="yes"/>
      <point x="-647" y="1204"/>
      <point x="-641" y="1199"/>
      <point x="-649" y="1178" type="curve" smooth="yes"/>
      <point x="-657" y="1157"/>
      <point x="-658" y="1116"/>
      <point x="-658" y="1082" type="curve"/>
      <point x="-804" y="1082" type="line"/>
      <point x="-804" y="1090"/>
      <point x="-805" y="1101"/>
      <point x="-805" y="1114" type="curve" smooth="yes"/>
      <point x="-805" y="1144"/>
      <point x="-803" y="1185"/>
      <point x="-787" y="1228" type="curve" smooth="yes"/>
      <point x="-765" y="1289"/>
      <point x="-695" y="1351"/>
      <point x="-603" y="1351" type="curve" smooth="yes"/>
      <point x="-514" y="1351" type="line" smooth="yes"/>
      <point x="-503" y="1351"/>
      <point x="-486" y="1355"/>
      <point x="-479" y="1360" type="curve" smooth="yes"/>
      <point x="-472" y="1365"/>
      <point x="-469" y="1365"/>
      <point x="-469" y="1384" type="curve" smooth="yes"/>
      <point x="-469" y="1404"/>
      <point x="-472" y="1407"/>
      <point x="-480" y="1413" type="curve" smooth="yes"/>
      <point x="-488" y="1419"/>
      <point x="-504" y="1424"/>
      <point x="-519" y="1424" type="curve" smooth="yes"/>
      <point x="-871" y="1424" type="line"/>
    </contour>
  </outline>
</glyph>
<glyph name="ai.vs" format="1">
  <advance width="0"/>
  <unicode hex="EDA6"/>
  <outline>
    <contour>
      <point x="-728" y="1020" type="move" name="_vowel_signs"/>
    </contour>
    <contour>
      <point x="-901" y="1569" type="curve"/>
      <point x="-846" y="1569"/>
      <point x="-819" y="1559"/>
      <point x="-789" y="1546" type="curve"/>
      <point x="-644" y="1546" type="line"/>
      <point x="-644" y="1321" type="line"/>
      <point x="-644" y="1320"/>
      <point x="-644" y="1320"/>
      <point x="-644" y="1319" type="curve" smooth="yes"/>
      <point x="-644" y="1281"/>
      <point x="-635" y="1253"/>
      <point x="-626" y="1240" type="curve" smooth="yes"/>
      <point x="-617" y="1227"/>
      <point x="-609" y="1220"/>
      <point x="-572" y="1220" type="curve" smooth="yes"/>
      <point x="-534" y="1220"/>
      <point x="-524" y="1228"/>
      <point x="-516" y="1238" type="curve" smooth="yes"/>
      <point x="-508" y="1248"/>
      <point x="-500" y="1269"/>
      <point x="-500" y="1300" type="curve" smooth="yes"/>
      <point x="-500" y="1546" type="line"/>
      <point x="-353" y="1546" type="line"/>
      <point x="-353" y="1300" type="line" smooth="yes"/>
      <point x="-353" y="1247"/>
      <point x="-365" y="1191"/>
      <point x="-402" y="1145" type="curve" smooth="yes"/>
      <point x="-439" y="1099"/>
      <point x="-502" y="1073"/>
      <point x="-572" y="1073" type="curve" smooth="yes"/>
      <point x="-634" y="1073"/>
      <point x="-691" y="1096"/>
      <point x="-729" y="1135" type="curve"/>
      <point x="-773" y="1096"/>
      <point x="-830" y="1073"/>
      <point x="-892" y="1073" type="curve" smooth="yes"/>
      <point x="-1028" y="1073"/>
      <point x="-1140" y="1185"/>
      <point x="-1140" y="1321" type="curve" smooth="yes"/>
      <point x="-1140" y="1455"/>
      <point x="-1041" y="1569"/>
    </contour>
    <contour>
      <point x="-891" y="1427" type="curve" smooth="yes"/>
      <point x="-949" y="1427"/>
      <point x="-996" y="1379"/>
      <point x="-996" y="1321" type="curve" smooth="yes"/>
      <point x="-996" y="1263"/>
      <point x="-949" y="1216"/>
      <point x="-891" y="1216" type="curve" smooth="yes"/>
      <point x="-833" y="1216"/>
      <point x="-785" y="1263"/>
      <point x="-785" y="1321" type="curve" smooth="yes"/>
      <point x="-785" y="1379"/>
      <point x="-833" y="1427"/>
    </contour>
  </outline>
</glyph>
<glyph name="oa.vs" format="1">
  <advance width="0"/>
  <unicode hex="EDA7"/>
  <outline>
    <contour>
      <point x="-366" y="1020" type="move" name="_vowel_signs"/>
    </contour>
    <contour>
      <point x="-502" y="1569" type="curve" smooth="yes"/>
      <point x="-366" y="1569"/>
      <point x="-254" y="1457"/>
      <point x="-254" y="1321" type="curve" smooth="yes"/>
      <point x="-254" y="1185"/>
      <point x="-366" y="1073"/>
      <point x="-502" y="1073" type="curve" smooth="yes"/>
      <point x="-638" y="1073"/>
      <point x="-750" y="1185"/>
      <point x="-750" y="1321" type="curve" smooth="yes"/>
      <point x="-750" y="1457"/>
      <point x="-638" y="1569"/>
    </contour>
    <contour>
      <point x="-182" y="1545" type="line"/>
      <point x="-35" y="1545" type="line"/>
      <point x="-35" y="1242" type="line" smooth="yes"/>
      <point x="-35" y="1230"/>
      <point x="-32" y="1227"/>
      <point x="-27" y="1222" type="curve" smooth="yes"/>
      <point x="-22" y="1217"/>
      <point x="-11" y="1213"/>
      <point x="-8" y="1212" type="curve" smooth="yes"/>
      <point x="-41" y="1069" type="line"/>
      <point x="-68" y="1075"/>
      <point x="-98" y="1088"/>
      <point x="-127" y="1115" type="curve" smooth="yes"/>
      <point x="-156" y="1142"/>
      <point x="-180" y="1185"/>
      <point x="-182" y="1237" type="curve" smooth="yes"/>
      <point x="-182" y="1238" type="line"/>
    </contour>
    <contour>
      <point x="-502" y="1422" type="curve" smooth="yes"/>
      <point x="-559" y="1422"/>
      <point x="-603" y="1378"/>
      <point x="-603" y="1321" type="curve" smooth="yes"/>
      <point x="-603" y="1264"/>
      <point x="-559" y="1220"/>
      <point x="-502" y="1220" type="curve" smooth="yes"/>
      <point x="-445" y="1220"/>
      <point x="-401" y="1264"/>
      <point x="-401" y="1321" type="curve" smooth="yes"/>
      <point x="-401" y="1378"/>
      <point x="-445" y="1422"/>
    </contour>
  </outline>
</glyph>
<glyph name="ei.vs" format="1">
  <advance width="0"/>
  <unicode hex="EDA9"/>
  <outline>
    <contour>
      <point x="-457" y="1020" type="move" name="_vowel_signs"/>
    </contour>
    <contour>
      <point x="-472" y="1593" type="line" smooth="yes"/>
      <point x="-413.747" y="1667.29"/>
      <point x="-326.931" y="1701.3"/>
      <point x="-236.283" y="1701.3" type="curve" smooth="yes"/>
      <point x="-157.315" y="1701.3"/>
      <point x="-75.4382" y="1675.49"/>
      <point x="-7" y="1628" type="curve"/>
      <point x="-95" y="1511" type="line"/>
      <point x="-131.034" y="1537.85"/>
      <point x="-185.038" y="1556.21"/>
      <point x="-237.263" y="1556.21" type="curve" smooth="yes"/>
      <point x="-258.954" y="1556.21"/>
      <point x="-280.338" y="1553.04"/>
      <point x="-300" y="1546" type="curve"/>
      <point x="-196.039" y="1507.46"/>
      <point x="-128.222" y="1429.57"/>
      <point x="-128.222" y="1308.72" type="curve" smooth="yes"/>
      <point x="-128.222" y="1294.72"/>
      <point x="-129.132" y="1280.15"/>
      <point x="-131" y="1265" type="curve"/>
      <point x="-153.936" y="1148.56"/>
      <point x="-259.358" y="1071.8"/>
      <point x="-372.443" y="1071.8" type="curve" smooth="yes"/>
      <point x="-387.551" y="1071.8"/>
      <point x="-402.796" y="1073.17"/>
      <point x="-418" y="1076" type="curve" smooth="yes"/>
      <point x="-527.701" y="1096.85"/>
      <point x="-608.633" y="1196.61"/>
      <point x="-608.633" y="1314.92" type="curve" smooth="yes"/>
      <point x="-608.633" y="1327.1"/>
      <point x="-607.774" y="1339.49"/>
      <point x="-606" y="1352" type="curve" smooth="yes"/>
      <point x="-603" y="1373"/>
      <point x="-597" y="1394"/>
      <point x="-588" y="1414" type="curve"/>
      <point x="-636" y="1398"/>
      <point x="-675" y="1367"/>
      <point x="-705" y="1298" type="curve" smooth="yes"/>
      <point x="-728.684" y="1243.53"/>
      <point x="-731.177" y="1180.33"/>
      <point x="-731.177" y="1124.15" type="curve" smooth="yes"/>
      <point x="-731.177" y="1109.17"/>
      <point x="-731" y="1094.68"/>
      <point x="-731" y="1081" type="curve"/>
      <point x="-878" y="1081" type="line"/>
      <point x="-878.018" y="1083.41"/>
      <point x="-878.027" y="1085.82"/>
      <point x="-878.027" y="1088.22" type="curve" smooth="yes"/>
      <point x="-878.027" y="1351.03"/>
      <point x="-769.398" y="1570.04"/>
      <point x="-485" y="1574" type="curve"/>
    </contour>
    <contour>
      <point x="-370" y="1414" type="curve" smooth="yes"/>
      <point x="-427" y="1414"/>
      <point x="-473" y="1368"/>
      <point x="-473" y="1311" type="curve" smooth="yes"/>
      <point x="-473" y="1254"/>
      <point x="-427" y="1207"/>
      <point x="-370" y="1207" type="curve" smooth="yes"/>
      <point x="-313" y="1207"/>
      <point x="-266" y="1254"/>
      <point x="-266" y="1311" type="curve" smooth="yes"/>
      <point x="-266" y="1368"/>
      <point x="-313" y="1414"/>
    </contour>
  </outline>
</glyph>
<glyph name="io.vs" format="1">
  <advance width="0"/>
  <unicode hex="EDAA"/>
  <outline>
    <contour>
      <point x="-746" y="1020" type="move" name="_vowel_signs"/>
    </contour>
    <contour>
      <point x="-664" y="1569" type="curve" smooth="yes"/>
      <point x="-528" y="1569"/>
      <point x="-416" y="1457"/>
      <point x="-416" y="1321" type="curve" smooth="yes"/>
      <point x="-416" y="1185"/>
      <point x="-528" y="1073"/>
      <point x="-664" y="1073" type="curve" smooth="yes"/>
      <point x="-800" y="1073"/>
      <point x="-912" y="1185"/>
      <point x="-912" y="1321" type="curve" smooth="yes"/>
      <point x="-912" y="1457"/>
      <point x="-800" y="1569"/>
    </contour>
    <contour>
      <point x="-984" y="1545" type="line"/>
      <point x="-984" y="1238" type="line"/>
      <point x="-984" y="1237" type="line" smooth="yes"/>
      <point x="-986" y="1185"/>
      <point x="-1010" y="1142"/>
      <point x="-1039" y="1115" type="curve" smooth="yes"/>
      <point x="-1068" y="1088"/>
      <point x="-1098" y="1075"/>
      <point x="-1125" y="1069" type="curve"/>
      <point x="-1158" y="1212" type="line" smooth="yes"/>
      <point x="-1155" y="1213"/>
      <point x="-1144" y="1217"/>
      <point x="-1139" y="1222" type="curve" smooth="yes"/>
      <point x="-1134" y="1227"/>
      <point x="-1131" y="1230"/>
      <point x="-1131" y="1242" type="curve" smooth="yes"/>
      <point x="-1131" y="1545" type="line"/>
    </contour>
    <contour>
      <point x="-664" y="1422" type="curve" smooth="yes"/>
      <point x="-721" y="1422"/>
      <point x="-765" y="1378"/>
      <point x="-765" y="1321" type="curve" smooth="yes"/>
      <point x="-765" y="1264"/>
      <point x="-721" y="1220"/>
      <point x="-664" y="1220" type="curve" smooth="yes"/>
      <point x="-607" y="1220"/>
      <point x="-563" y="1264"/>
      <point x="-563" y="1321" type="curve" smooth="yes"/>
      <point x="-563" y="1378"/>
      <point x="-607" y="1422"/>
    </contour>
  </outline>
</glyph>
<glyph name="subjoiner_symbol" format="1">
  <advance width="1095"/>
  <unicode hex="EDAB"/>
  <outline>
    <contour>
      <point x="546" y="1020" type="move" name="vowel_signs"/>
    </contour>
    <contour>
      <point x="548" y="937" type="curve" smooth="yes"/>
      <point x="588" y="937"/>
      <point x="621" y="904"/>
      <point x="621" y="864" type="curve" smooth="yes"/>
      <point x="621" y="824"/>
      <point x="588" y="791"/>
      <point x="548" y="791" type="curve" smooth="yes"/>
      <point x="508" y="791"/>
      <point x="475" y="824"/>
      <point x="475" y="864" type="curve" smooth="yes"/>
      <point x="475" y="904"/>
      <point x="508" y="937"/>
    </contour>
    <contour>
      <point x="314" y="862" type="curve" smooth="yes"/>
      <point x="315" y="862" type="line" smooth="yes"/>
      <point x="336" y="862"/>
      <point x="363" y="848"/>
      <point x="375" y="831" type="curve" smooth="yes"/>
      <point x="382" y="821"/>
      <point x="388" y="802"/>
      <point x="388" y="789" type="curve" smooth="yes"/>
      <point x="388" y="768"/>
      <point x="374" y="741"/>
      <point x="357" y="729" type="curve" smooth="yes"/>
      <point x="347" y="722"/>
      <point x="328" y="716"/>
      <point x="315" y="716" type="curve" smooth="yes"/>
      <point x="294" y="716"/>
      <point x="268" y="730"/>
      <point x="256" y="747" type="curve" smooth="yes"/>
      <point x="249" y="757"/>
      <point x="242" y="776"/>
      <point x="242" y="789" type="curve" smooth="yes"/>
      <point x="242" y="810"/>
      <point x="256" y="836"/>
      <point x="273" y="848" type="curve" smooth="yes"/>
      <point x="283" y="855"/>
      <point x="302" y="862"/>
    </contour>
    <contour>
      <point x="786" y="860" type="line" smooth="yes"/>
      <point x="798" y="860"/>
      <point x="817" y="854"/>
      <point x="827" y="847" type="curve" smooth="yes"/>
      <point x="844" y="835"/>
      <point x="857" y="808"/>
      <point x="857" y="787" type="curve" smooth="yes"/>
      <point x="857" y="774"/>
      <point x="852" y="756"/>
      <point x="844" y="745" type="curve" smooth="yes"/>
      <point x="832" y="728"/>
      <point x="805" y="714"/>
      <point x="784" y="714" type="curve" smooth="yes"/>
      <point x="771" y="714"/>
      <point x="753" y="720"/>
      <point x="742" y="728" type="curve" smooth="yes"/>
      <point x="725" y="740"/>
      <point x="711" y="766"/>
      <point x="711" y="787" type="curve" smooth="yes"/>
      <point x="711" y="800"/>
      <point x="717" y="819"/>
      <point x="725" y="830" type="curve" smooth="yes"/>
      <point x="736" y="846"/>
      <point x="762" y="859"/>
      <point x="781" y="860" type="curve" smooth="yes"/>
      <point x="782" y="860"/>
      <point x="783" y="860"/>
      <point x="784" y="860" type="curve" smooth="yes"/>
    </contour>
    <contour>
      <point x="166" y="658" type="curve" smooth="yes"/>
      <point x="171" y="658"/>
      <point x="181" y="657"/>
      <point x="186" y="655" type="curve" smooth="yes"/>
      <point x="214" y="646"/>
      <point x="236" y="614"/>
      <point x="236" y="585" type="curve" smooth="yes"/>
      <point x="236" y="579"/>
      <point x="235" y="569"/>
      <point x="233" y="563" type="curve" smooth="yes"/>
      <point x="224" y="535"/>
      <point x="192" y="512"/>
      <point x="163" y="512" type="curve" smooth="yes"/>
      <point x="157" y="512"/>
      <point x="147" y="514"/>
      <point x="141" y="516" type="curve" smooth="yes"/>
      <point x="113" y="525"/>
      <point x="90" y="556"/>
      <point x="90" y="585" type="curve" smooth="yes"/>
      <point x="90" y="591"/>
      <point x="92" y="602"/>
      <point x="94" y="608" type="curve" smooth="yes"/>
      <point x="103" y="636"/>
      <point x="134" y="658"/>
      <point x="163" y="658" type="curve" smooth="yes"/>
      <point x="164" y="658"/>
      <point x="165" y="658"/>
    </contour>
    <contour>
      <point x="932" y="657" type="curve" smooth="yes"/>
      <point x="933" y="657" type="line" smooth="yes"/>
      <point x="962" y="657"/>
      <point x="993" y="634"/>
      <point x="1002" y="606" type="curve" smooth="yes"/>
      <point x="1004" y="600"/>
      <point x="1006" y="590"/>
      <point x="1006" y="584" type="curve" smooth="yes"/>
      <point x="1006" y="555"/>
      <point x="983" y="523"/>
      <point x="955" y="514" type="curve" smooth="yes"/>
      <point x="949" y="512"/>
      <point x="939" y="511"/>
      <point x="933" y="511" type="curve" smooth="yes"/>
      <point x="904" y="511"/>
      <point x="872" y="533"/>
      <point x="863" y="561" type="curve" smooth="yes"/>
      <point x="861" y="567"/>
      <point x="860" y="578"/>
      <point x="860" y="584" type="curve" smooth="yes"/>
      <point x="860" y="613"/>
      <point x="882" y="644"/>
      <point x="910" y="653" type="curve" smooth="yes"/>
      <point x="916" y="655"/>
      <point x="926" y="657"/>
    </contour>
    <contour>
      <point x="162" y="409" type="curve" smooth="yes"/>
      <point x="163" y="409" type="line" smooth="yes"/>
      <point x="192" y="409"/>
      <point x="223" y="386"/>
      <point x="232" y="358" type="curve" smooth="yes"/>
      <point x="234" y="352"/>
      <point x="236" y="342"/>
      <point x="236" y="336" type="curve" smooth="yes"/>
      <point x="236" y="307"/>
      <point x="213" y="275"/>
      <point x="185" y="266" type="curve" smooth="yes"/>
      <point x="179" y="264"/>
      <point x="169" y="263"/>
      <point x="163" y="263" type="curve" smooth="yes"/>
      <point x="134" y="263"/>
      <point x="103" y="285"/>
      <point x="94" y="313" type="curve" smooth="yes"/>
      <point x="92" y="319"/>
      <point x="90" y="330"/>
      <point x="90" y="336" type="curve" smooth="yes"/>
      <point x="90" y="365"/>
      <point x="113" y="396"/>
      <point x="141" y="405" type="curve" smooth="yes"/>
      <point x="147" y="407"/>
      <point x="156" y="409"/>
    </contour>
    <contour>
      <point x="935" y="409" type="curve" smooth="yes"/>
      <point x="940" y="409"/>
      <point x="950" y="407"/>
      <point x="955" y="405" type="curve" smooth="yes"/>
      <point x="983" y="396"/>
      <point x="1005" y="365"/>
      <point x="1005" y="336" type="curve" smooth="yes"/>
      <point x="1005" y="330"/>
      <point x="1004" y="319"/>
      <point x="1002" y="313" type="curve" smooth="yes"/>
      <point x="993" y="285"/>
      <point x="961" y="263"/>
      <point x="932" y="263" type="curve" smooth="yes"/>
      <point x="926" y="263"/>
      <point x="916" y="264"/>
      <point x="910" y="266" type="curve" smooth="yes"/>
      <point x="882" y="275"/>
      <point x="859" y="307"/>
      <point x="859" y="336" type="curve" smooth="yes"/>
      <point x="859" y="342"/>
      <point x="861" y="352"/>
      <point x="863" y="358" type="curve" smooth="yes"/>
      <point x="872" y="386"/>
      <point x="903" y="409"/>
      <point x="932" y="409" type="curve" smooth="yes"/>
      <point x="933" y="409"/>
      <point x="934" y="409"/>
    </contour>
    <contour>
      <point x="314" y="204" type="line" smooth="yes"/>
      <point x="326" y="204"/>
      <point x="345" y="197"/>
      <point x="355" y="190" type="curve" smooth="yes"/>
      <point x="372" y="178"/>
      <point x="385" y="152"/>
      <point x="385" y="131" type="curve" smooth="yes"/>
      <point x="385" y="118"/>
      <point x="379" y="100"/>
      <point x="371" y="89" type="curve" smooth="yes"/>
      <point x="359" y="72"/>
      <point x="333" y="58"/>
      <point x="312" y="58" type="curve" smooth="yes"/>
      <point x="299" y="58"/>
      <point x="280" y="64"/>
      <point x="269" y="72" type="curve" smooth="yes"/>
      <point x="252" y="84"/>
      <point x="239" y="110"/>
      <point x="239" y="131" type="curve" smooth="yes"/>
      <point x="239" y="144"/>
      <point x="245" y="163"/>
      <point x="253" y="174" type="curve" smooth="yes"/>
      <point x="264" y="190"/>
      <point x="290" y="203"/>
      <point x="309" y="204" type="curve" smooth="yes"/>
      <point x="310" y="204"/>
      <point x="311" y="204"/>
      <point x="312" y="204" type="curve" smooth="yes"/>
    </contour>
    <contour>
      <point x="782" y="203" type="curve" smooth="yes"/>
      <point x="784" y="203" type="line" smooth="yes"/>
      <point x="805" y="203"/>
      <point x="831" y="189"/>
      <point x="843" y="172" type="curve" smooth="yes"/>
      <point x="850" y="162"/>
      <point x="857" y="143"/>
      <point x="857" y="130" type="curve" smooth="yes"/>
      <point x="857" y="109"/>
      <point x="843" y="82"/>
      <point x="826" y="70" type="curve" smooth="yes"/>
      <point x="816" y="63"/>
      <point x="797" y="57"/>
      <point x="784" y="57" type="curve" smooth="yes"/>
      <point x="763" y="57"/>
      <point x="736" y="70"/>
      <point x="724" y="87" type="curve" smooth="yes"/>
      <point x="717" y="97"/>
      <point x="711" y="117"/>
      <point x="711" y="130" type="curve" smooth="yes"/>
      <point x="711" y="151"/>
      <point x="724" y="177"/>
      <point x="741" y="189" type="curve" smooth="yes"/>
      <point x="751" y="196"/>
      <point x="770" y="203"/>
    </contour>
    <contour>
      <point x="548" y="129" type="curve" smooth="yes"/>
      <point x="588" y="129"/>
      <point x="621" y="96"/>
      <point x="621" y="56" type="curve" smooth="yes"/>
      <point x="621" y="16"/>
      <point x="588" y="-17"/>
      <point x="548" y="-17" type="curve" smooth="yes"/>
      <point x="508" y="-17"/>
      <point x="475" y="16"/>
      <point x="475" y="56" type="curve" smooth="yes"/>
      <point x="475" y="96"/>
      <point x="508" y="129"/>
    </contour>
    <contour>
      <point x="468" y="-202" type="line"/>
      <point x="628" y="-202" type="line"/>
      <point x="628" y="-437" type="line"/>
      <point x="863" y="-437" type="line"/>
      <point x="863" y="-597" type="line"/>
      <point x="628" y="-597" type="line"/>
      <point x="628" y="-832" type="line"/>
      <point x="468" y="-832" type="line"/>
      <point x="468" y="-597" type="line"/>
      <point x="233" y="-597" type="line"/>
      <point x="233" y="-437" type="line"/>
      <point x="468" y="-437" type="line"/>
    </contour>
  </outline>
</glyph>
<glyph name="ao.vs" format="1">
  <advance width="0"/>
  <unicode hex="EDAC"/>
  <outline>
    <contour>
      <point x="-701" y="1020" type="move" name="_vowel_signs"/>
    </contour>
    <contour>
      <point x="-698.285" y="1087" type="line"/>
      <point x="-1051.31" y="1428.98" type="line"/>
      <point x="-949.315" y="1534.98" type="line"/>
      <point x="-698.299" y="1292" type="line"/>
      <point x="-447.314" y="1535.02" type="line"/>
      <point x="-345.308" y="1429.02" type="line"/>
    </contour>
  </outline>
</glyph>
<glyph name="name.sign" format="1">
  <advance width="459"/>
  <unicode hex="EDAE"/>
  <outline>
    <contour>
      <point x="222" y="1560" type="line"/>
      <point x="369" y="1560" type="line"/>
      <point x="369" y="-596" type="line"/>
      <point x="369.019" y="-597.595"/>
      <point x="369.029" y="-599.187"/>
      <point x="369.029" y="-600.775" type="curve" smooth="yes"/>
      <point x="369.029" y="-681.835"/>
      <point x="343.982" y="-753.961"/>
      <point x="292" y="-803" type="curve" smooth="yes"/>
      <point x="239" y="-853"/>
      <point x="167" y="-874"/>
      <point x="90" y="-874" type="curve"/>
      <point x="90" y="-727" type="line"/>
      <point x="141" y="-727"/>
      <point x="172" y="-715"/>
      <point x="191" y="-697" type="curve" smooth="yes"/>
      <point x="209" y="-680"/>
      <point x="222" y="-654"/>
      <point x="222" y="-604" type="curve"/>
      <point x="222" y="-598" type="line"/>
    </contour>
  </outline>
</glyph>
<glyph name="tza" format="1">
  <advance width="1186"/>
  <unicode hex="EDB6"/>
  <outline>
    <contour>
      <point x="600" y="-70" type="move" name="subjoined_consonants"/>
    </contour>
    <contour>
      <point x="583" y="1020" type="move" name="vowel_signs"/>
    </contour>
    <contour>
      <point x="154" y="923" type="line"/>
      <point x="1045" y="923" type="line"/>
      <point x="437" y="264" type="line"/>
      <point x="489.859" y="274.216"/>
      <point x="542.965" y="279.106"/>
      <point x="595.551" y="279.106" type="curve" smooth="yes"/>
      <point x="779.733" y="279.106"/>
      <point x="957.533" y="219.127"/>
      <point x="1096" y="118" type="curve"/>
      <point x="1009" y="-1" type="line"/>
      <point x="895.847" y="81.628"/>
      <point x="748.625" y="132.126"/>
      <point x="595.468" y="132.126" type="curve" smooth="yes"/>
      <point x="457.615" y="132.126"/>
      <point x="314.953" y="91.2151"/>
      <point x="188" y="-4" type="curve"/>
      <point x="90" y="105" type="line"/>
      <point x="710" y="776" type="line"/>
      <point x="154" y="776" type="line"/>
    </contour>
  </outline>
</glyph>
<glyph name="tla" format="1">
  <advance width="1214"/>
  <unicode hex="EDB7"/>
  <outline>
    <contour>
      <point x="600" y="-70" type="move" name="subjoined_consonants"/>
    </contour>
    <contour>
      <point x="583" y="1020" type="move" name="vowel_signs"/>
    </contour>
    <contour>
      <point x="1042" y="927" type="line"/>
      <point x="1030" y="843" type="line"/>
      <point x="1030" y="843"/>
      <point x="1002" y="640"/>
      <point x="919" y="434" type="curve" smooth="yes"/>
      <point x="909" y="409"/>
      <point x="898" y="383"/>
      <point x="886" y="358" type="curve"/>
      <point x="901" y="344"/>
      <point x="916" y="330"/>
      <point x="930" y="316" type="curve" smooth="yes"/>
      <point x="1049" y="197"/>
      <point x="1125" y="77"/>
      <point x="1125" y="77" type="curve"/>
      <point x="1001" y="-2" type="line"/>
      <point x="1001" y="-2"/>
      <point x="933" y="105"/>
      <point x="826" y="212" type="curve" smooth="yes"/>
      <point x="821" y="217"/>
      <point x="816" y="221"/>
      <point x="811" y="226" type="curve"/>
      <point x="791" y="196"/>
      <point x="769" y="168"/>
      <point x="744" y="142" type="curve" smooth="yes"/>
      <point x="666" y="58"/>
      <point x="559" y="-4"/>
      <point x="432" y="-4" type="curve" smooth="yes"/>
      <point x="327" y="-4"/>
      <point x="242" y="24"/>
      <point x="182" y="74" type="curve" smooth="yes"/>
      <point x="122" y="124"/>
      <point x="90" y="196"/>
      <point x="90" y="267" type="curve" smooth="yes"/>
      <point x="90" y="351"/>
      <point x="129" y="430"/>
      <point x="194" y="483" type="curve" smooth="yes"/>
      <point x="259" y="536"/>
      <point x="346" y="563"/>
      <point x="446" y="563" type="curve" smooth="yes"/>
      <point x="566" y="563"/>
      <point x="674" y="516"/>
      <point x="767" y="453" type="curve"/>
      <point x="772" y="465"/>
      <point x="777" y="477"/>
      <point x="782" y="489" type="curve" smooth="yes"/>
      <point x="826" y="598"/>
      <point x="854" y="707"/>
      <point x="869" y="779" type="curve"/>
      <point x="148" y="776" type="line"/>
      <point x="148" y="923" type="line"/>
    </contour>
    <contour>
      <point x="446" y="416" type="curve" smooth="yes"/>
      <point x="374" y="416"/>
      <point x="321" y="395"/>
      <point x="287" y="368" type="curve" smooth="yes"/>
      <point x="253" y="341"/>
      <point x="237" y="308"/>
      <point x="237" y="267" type="curve" smooth="yes"/>
      <point x="237" y="236"/>
      <point x="248" y="210"/>
      <point x="276" y="187" type="curve" smooth="yes"/>
      <point x="304" y="164"/>
      <point x="352" y="143"/>
      <point x="432" y="143" type="curve" smooth="yes"/>
      <point x="513" y="143"/>
      <point x="577" y="179"/>
      <point x="636" y="242" type="curve" smooth="yes"/>
      <point x="658" y="265"/>
      <point x="678" y="292"/>
      <point x="697" y="321" type="curve"/>
      <point x="617" y="377"/>
      <point x="529" y="416"/>
    </contour>
  </outline>
</glyph>
<glyph name="xa" format="1">
  <advance width="1481"/>
  <unicode hex="EDBA"/>
  <outline>
    <contour>
      <point x="742" y="-70" type="move" name="subjoined_consonants"/>
    </contour>
    <contour>
      <point x="753" y="1020" type="move" name="vowel_signs"/>
    </contour>
    <contour>
      <point x="90" y="47" type="line"/>
      <point x="90" y="47"/>
      <point x="190" y="280"/>
      <point x="323" y="471" type="curve"/>
      <point x="191" y="661"/>
      <point x="90" y="898"/>
      <point x="90" y="898" type="curve"/>
      <point x="227" y="952" type="line"/>
      <point x="227" y="952"/>
      <point x="298" y="775"/>
      <point x="417" y="594" type="curve"/>
      <point x="544" y="745"/>
      <point x="706" y="874"/>
      <point x="904" y="874" type="curve" smooth="yes"/>
      <point x="1233" y="874"/>
      <point x="1392" y="643"/>
      <point x="1392" y="468" type="curve" smooth="yes"/>
      <point x="1392" y="295"/>
      <point x="1236" y="69"/>
      <point x="904" y="69" type="curve" smooth="yes"/>
      <point x="705" y="69"/>
      <point x="544" y="196"/>
      <point x="417" y="347" type="curve"/>
      <point x="298" y="167"/>
      <point x="226" y="-8"/>
      <point x="226" y="-8" type="curve"/>
    </contour>
    <contour>
      <point x="904" y="727" type="curve" smooth="yes"/>
      <point x="765" y="727"/>
      <point x="624" y="614"/>
      <point x="507" y="471" type="curve"/>
      <point x="623" y="328"/>
      <point x="764" y="216"/>
      <point x="904" y="216" type="curve" smooth="yes"/>
      <point x="1172" y="216"/>
      <point x="1245" y="381"/>
      <point x="1245" y="468" type="curve" smooth="yes"/>
      <point x="1245" y="554"/>
      <point x="1166" y="727"/>
    </contour>
  </outline>
</glyph>
<glyph name="ha" format="1">
  <advance width="1275"/>
  <unicode hex="EDBB"/>
  <outline>
    <contour>
      <point x="550" y="-70" type="move" name="subjoined_consonants"/>
    </contour>
    <contour>
      <point x="533" y="1020" type="move" name="vowel_signs"/>
    </contour>
    <contour>
      <point x="237" y="598" type="line"/>
      <point x="325" y="774"/>
      <point x="482" y="946"/>
      <point x="732" y="946" type="curve" smooth="yes"/>
      <point x="979" y="946"/>
      <point x="1185" y="742"/>
      <point x="1185" y="463" type="curve" smooth="yes"/>
      <point x="1185" y="120"/>
      <point x="843" y="-7"/>
      <point x="843" y="-7" type="curve"/>
      <point x="793" y="131" type="line"/>
      <point x="793" y="131"/>
      <point x="1038" y="219"/>
      <point x="1038" y="463" type="curve" smooth="yes"/>
      <point x="1038" y="673"/>
      <point x="901" y="799"/>
      <point x="732" y="799" type="curve" smooth="yes"/>
      <point x="622" y="799"/>
      <point x="543" y="757"/>
      <point x="476" y="688" type="curve" smooth="yes"/>
      <point x="409" y="619"/>
      <point x="357" y="522"/>
      <point x="321" y="422" type="curve" smooth="yes"/>
      <point x="249" y="222"/>
      <point x="237" y="17"/>
      <point x="237" y="17" type="curve"/>
      <point x="90" y="21" type="line"/>
      <point x="90" y="925" type="line"/>
      <point x="237" y="925" type="line"/>
    </contour>
  </outline>
</glyph>
<glyph name="la" format="1">
  <advance width="885"/>
  <unicode hex="EDBC"/>
  <outline>
    <contour>
      <point x="450" y="-70" type="move" name="subjoined_consonants"/>
    </contour>
    <contour>
      <point x="433" y="1020" type="move" name="vowel_signs"/>
    </contour>
    <contour>
      <point x="184" y="610" type="curve" smooth="yes"/>
      <point x="184" y="769"/>
      <point x="281" y="944"/>
      <point x="443" y="944" type="curve" smooth="yes"/>
      <point x="605" y="944"/>
      <point x="701" y="769"/>
      <point x="701" y="610" type="curve" smooth="yes"/>
      <point x="701" y="482"/>
      <point x="636" y="374"/>
      <point x="553" y="285" type="curve"/>
      <point x="670" y="192"/>
      <point x="796" y="129"/>
      <point x="796" y="129" type="curve"/>
      <point x="731" y="-3" type="line"/>
      <point x="731" y="-3"/>
      <point x="598" y="62"/>
      <point x="465" y="167" type="curve" smooth="yes"/>
      <point x="458" y="173"/>
      <point x="451" y="179"/>
      <point x="444" y="185" type="curve"/>
      <point x="436" y="179"/>
      <point x="428" y="172"/>
      <point x="420" y="166" type="curve" smooth="yes"/>
      <point x="287" y="61"/>
      <point x="154" y="-3"/>
      <point x="154" y="-3" type="curve"/>
      <point x="90" y="129" type="line"/>
      <point x="90" y="129"/>
      <point x="218" y="193"/>
      <point x="334" y="285" type="curve"/>
      <point x="250" y="374"/>
      <point x="184" y="483"/>
    </contour>
    <contour>
      <point x="554" y="610" type="curve" smooth="yes"/>
      <point x="554" y="685"/>
      <point x="512" y="797"/>
      <point x="443" y="797" type="curve" smooth="yes"/>
      <point x="374" y="797"/>
      <point x="332" y="685"/>
      <point x="332" y="610" type="curve" smooth="yes"/>
      <point x="332" y="539"/>
      <point x="378" y="461"/>
      <point x="444" y="388" type="curve"/>
      <point x="509" y="460"/>
      <point x="554" y="538"/>
    </contour>
  </outline>
</glyph>
<glyph name="wa" format="1">
  <advance width="1652"/>
  <unicode hex="EDBE"/>
  <outline>
    <contour>
      <point x="825" y="-70" type="move" name="subjoined_consonants"/>
    </contour>
    <contour>
      <point x="808" y="1020" type="move" name="vowel_signs"/>
    </contour>
    <contour>
      <point x="829" y="195" type="curve"/>
      <point x="772" y="86"/>
      <point x="665" y="-2"/>
      <point x="504" y="-2" type="curve" smooth="yes"/>
      <point x="255" y="-2"/>
      <point x="90" y="205"/>
      <point x="90" y="429" type="curve" smooth="yes"/>
      <point x="90" y="762"/>
      <point x="339" y="946"/>
      <point x="339" y="946" type="curve"/>
      <point x="426" y="828" type="line"/>
      <point x="426" y="828"/>
      <point x="237" y="690"/>
      <point x="237" y="429" type="curve" smooth="yes"/>
      <point x="237" y="271"/>
      <point x="332" y="145"/>
      <point x="504" y="145" type="curve" smooth="yes"/>
      <point x="697" y="145"/>
      <point x="752" y="342"/>
      <point x="753" y="516" type="curve" smooth="yes"/>
      <point x="752" y="536"/>
      <point x="753" y="548"/>
      <point x="753" y="548" type="curve"/>
      <point x="900" y="550" type="line"/>
      <point x="900" y="550"/>
      <point x="900" y="537"/>
      <point x="900" y="517" type="curve" smooth="yes"/>
      <point x="906" y="351"/>
      <point x="960" y="145"/>
      <point x="1148" y="145" type="curve" smooth="yes"/>
      <point x="1320" y="145"/>
      <point x="1415" y="271"/>
      <point x="1415" y="429" type="curve" smooth="yes"/>
      <point x="1415" y="690"/>
      <point x="1226" y="828"/>
      <point x="1226" y="828" type="curve"/>
      <point x="1313" y="946" type="line"/>
      <point x="1313" y="946"/>
      <point x="1562" y="762"/>
      <point x="1562" y="429" type="curve" smooth="yes"/>
      <point x="1562" y="205"/>
      <point x="1397" y="-2"/>
      <point x="1148" y="-2" type="curve" smooth="yes"/>
      <point x="990" y="-2"/>
      <point x="886" y="88"/>
    </contour>
  </outline>
</glyph>
<glyph name="ma.sub" format="1">
  <advance width="0"/>
  <unicode hex="EDD0"/>
  <outline>
    <contour>
      <point x="-710" y="-70" type="move" name="_subjoined_consonants"/>
    </contour>
    <contour>
      <point x="-958" y="-157" type="curve" smooth="yes"/>
      <point x="-860" y="-157"/>
      <point x="-774" y="-206"/>
      <point x="-717" y="-284" type="curve"/>
      <point x="-659" y="-206"/>
      <point x="-572" y="-157"/>
      <point x="-474" y="-157" type="curve" smooth="yes"/>
      <point x="-290" y="-157"/>
      <point x="-146" y="-319"/>
      <point x="-146" y="-517" type="curve" smooth="yes"/>
      <point x="-146" y="-780"/>
      <point x="-369" y="-903"/>
      <point x="-369" y="-903" type="curve"/>
      <point x="-439" y="-774" type="line"/>
      <point x="-439" y="-774"/>
      <point x="-293" y="-699"/>
      <point x="-293" y="-517" type="curve" smooth="yes"/>
      <point x="-293" y="-385"/>
      <point x="-373" y="-304"/>
      <point x="-474" y="-304" type="curve" smooth="yes"/>
      <point x="-562" y="-304"/>
      <point x="-642" y="-377"/>
      <point x="-642" y="-510" type="curve" smooth="yes"/>
      <point x="-643" y="-872" type="line"/>
      <point x="-790" y="-872" type="line"/>
      <point x="-791" y="-511" type="line" smooth="yes"/>
      <point x="-793" y="-378"/>
      <point x="-870" y="-304"/>
      <point x="-958" y="-304" type="curve" smooth="yes"/>
      <point x="-1059" y="-304"/>
      <point x="-1140" y="-385"/>
      <point x="-1140" y="-517" type="curve" smooth="yes"/>
      <point x="-1140" y="-699"/>
      <point x="-994" y="-774"/>
      <point x="-994" y="-774" type="curve"/>
      <point x="-1064" y="-903" type="line"/>
      <point x="-1064" y="-903"/>
      <point x="-1287" y="-780"/>
      <point x="-1287" y="-517" type="curve" smooth="yes"/>
      <point x="-1287" y="-319"/>
      <point x="-1142" y="-157"/>
    </contour>
  </outline>
</glyph>
<glyph name="na.sub" format="1">
  <advance width="0"/>
  <unicode hex="EDD1"/>
  <outline>
    <contour>
      <point x="-691" y="-70" type="move" name="_subjoined_consonants"/>
    </contour>
    <contour>
      <point x="-712" y="-159" type="curve" smooth="yes"/>
      <point x="-526" y="-159"/>
      <point x="-392" y="-273"/>
      <point x="-338" y="-419" type="curve" smooth="yes"/>
      <point x="-315" y="-481"/>
      <point x="-304" y="-547"/>
      <point x="-304" y="-615" type="curve" smooth="yes"/>
      <point x="-304" y="-708"/>
      <point x="-325" y="-805"/>
      <point x="-363" y="-895" type="curve"/>
      <point x="-498" y="-838" type="line"/>
      <point x="-467" y="-766"/>
      <point x="-452" y="-689"/>
      <point x="-452" y="-616" type="curve" smooth="yes"/>
      <point x="-452" y="-563"/>
      <point x="-460" y="-513"/>
      <point x="-476" y="-470" type="curve" smooth="yes"/>
      <point x="-513" y="-369"/>
      <point x="-580" y="-306"/>
      <point x="-712" y="-306" type="curve" smooth="yes"/>
      <point x="-844" y="-306"/>
      <point x="-911" y="-369"/>
      <point x="-949" y="-470" type="curve" smooth="yes"/>
      <point x="-965" y="-513"/>
      <point x="-973" y="-563"/>
      <point x="-973" y="-616" type="curve" smooth="yes"/>
      <point x="-973" y="-689"/>
      <point x="-958" y="-766"/>
      <point x="-926" y="-837" type="curve"/>
      <point x="-1060" y="-896" type="line"/>
      <point x="-1100" y="-806"/>
      <point x="-1121" y="-709"/>
      <point x="-1121" y="-615" type="curve" smooth="yes"/>
      <point x="-1121" y="-547"/>
      <point x="-1110" y="-480"/>
      <point x="-1087" y="-419" type="curve" smooth="yes"/>
      <point x="-1033" y="-273"/>
      <point x="-898" y="-159"/>
    </contour>
  </outline>
</glyph>
<glyph name="pa.sub" format="1">
  <advance width="0"/>
  <unicode hex="EDD2"/>
  <outline>
    <contour>
      <point x="-700" y="-70" type="move" name="_subjoined_consonants"/>
    </contour>
    <contour>
      <point x="-580" y="-156" type="curve" smooth="yes"/>
      <point x="-555" y="-156"/>
      <point x="-531" y="-160"/>
      <point x="-507" y="-166" type="curve" smooth="yes"/>
      <point x="-379" y="-200"/>
      <point x="-258" y="-323"/>
      <point x="-258" y="-500" type="curve" smooth="yes"/>
      <point x="-258" y="-717"/>
      <point x="-467" y="-906"/>
      <point x="-719" y="-906" type="curve" smooth="yes"/>
      <point x="-841" y="-906"/>
      <point x="-954" y="-870"/>
      <point x="-1039" y="-803" type="curve" smooth="yes"/>
      <point x="-1124" y="-736"/>
      <point x="-1181" y="-635"/>
      <point x="-1181" y="-519" type="curve" smooth="yes"/>
      <point x="-1181" y="-350"/>
      <point x="-1092" y="-217"/>
      <point x="-963" y="-157" type="curve"/>
      <point x="-901" y="-291" type="line"/>
      <point x="-983" y="-329"/>
      <point x="-1034" y="-396"/>
      <point x="-1034" y="-519" type="curve" smooth="yes"/>
      <point x="-1034" y="-589"/>
      <point x="-1003" y="-644"/>
      <point x="-948" y="-687" type="curve" smooth="yes"/>
      <point x="-908" y="-718"/>
      <point x="-854" y="-741"/>
      <point x="-793" y="-752" type="curve"/>
      <point x="-793" y="-383" type="line" smooth="yes"/>
      <point x="-793" y="-300"/>
      <point x="-757" y="-228"/>
      <point x="-699" y="-190" type="curve" smooth="yes"/>
      <point x="-663" y="-167"/>
      <point x="-621" y="-156"/>
    </contour>
    <contour>
      <point x="-568" y="-304" type="curve" smooth="yes"/>
      <point x="-590" y="-302"/>
      <point x="-608" y="-306"/>
      <point x="-619" y="-313" type="curve" smooth="yes"/>
      <point x="-634" y="-322"/>
      <point x="-646" y="-337"/>
      <point x="-646" y="-383" type="curve" smooth="yes"/>
      <point x="-646" y="-750" type="line"/>
      <point x="-506" y="-718"/>
      <point x="-405" y="-598"/>
      <point x="-405" y="-500" type="curve" smooth="yes"/>
      <point x="-405" y="-390"/>
      <point x="-478" y="-326"/>
      <point x="-544" y="-308" type="curve" smooth="yes"/>
      <point x="-552" y="-306"/>
      <point x="-561" y="-305"/>
    </contour>
  </outline>
</glyph>
<glyph name="ta.sub" format="1">
  <advance width="0"/>
  <unicode hex="EDD3"/>
  <outline>
    <contour>
      <point x="-480" y="-70" type="move" name="_subjoined_consonants"/>
    </contour>
    <contour>
      <point x="-801" y="-175" type="line"/>
      <point x="-229" y="-175" type="line"/>
      <point x="-217" y="-321" type="line"/>
      <point x="-217" y="-321"/>
      <point x="-328" y="-340"/>
      <point x="-437" y="-392" type="curve" smooth="yes"/>
      <point x="-491" y="-418"/>
      <point x="-543" y="-452"/>
      <point x="-579" y="-492" type="curve" smooth="yes"/>
      <point x="-615" y="-532"/>
      <point x="-635" y="-575"/>
      <point x="-635" y="-632" type="curve" smooth="yes"/>
      <point x="-635" y="-672"/>
      <point x="-620" y="-698"/>
      <point x="-592" y="-721" type="curve" smooth="yes"/>
      <point x="-564" y="-744"/>
      <point x="-520" y="-759"/>
      <point x="-470" y="-759" type="curve" smooth="yes"/>
      <point x="-335" y="-759"/>
      <point x="-263" y="-670"/>
      <point x="-263" y="-670" type="curve"/>
      <point x="-150" y="-764" type="line"/>
      <point x="-150" y="-764"/>
      <point x="-268" y="-906"/>
      <point x="-470" y="-906" type="curve" smooth="yes"/>
      <point x="-549" y="-906"/>
      <point x="-625" y="-883"/>
      <point x="-684" y="-836" type="curve" smooth="yes"/>
      <point x="-743" y="-789"/>
      <point x="-782" y="-715"/>
      <point x="-782" y="-632" type="curve" smooth="yes"/>
      <point x="-782" y="-536"/>
      <point x="-743" y="-455"/>
      <point x="-689" y="-394" type="curve" smooth="yes"/>
      <point x="-664" y="-366"/>
      <point x="-636" y="-343"/>
      <point x="-607" y="-322" type="curve"/>
      <point x="-801" y="-322" type="line"/>
    </contour>
  </outline>
</glyph>
<glyph name="ca.sub" format="1">
  <advance width="0"/>
  <unicode hex="EDD4"/>
  <outline>
    <contour>
      <point x="-410" y="-70" type="move" name="_subjoined_consonants"/>
    </contour>
    <contour>
      <point x="-425" y="-158" type="curve" smooth="yes"/>
      <point x="-322" y="-158"/>
      <point x="-228" y="-200"/>
      <point x="-160" y="-268" type="curve"/>
      <point x="-264" y="-372" type="line"/>
      <point x="-305" y="-331"/>
      <point x="-362" y="-305"/>
      <point x="-425" y="-305" type="curve" smooth="yes"/>
      <point x="-552" y="-305"/>
      <point x="-653" y="-406"/>
      <point x="-653" y="-533" type="curve" smooth="yes"/>
      <point x="-653" y="-660"/>
      <point x="-552" y="-761"/>
      <point x="-425" y="-761" type="curve" smooth="yes"/>
      <point x="-329" y="-761"/>
      <point x="-301" y="-737"/>
      <point x="-222" y="-668" type="curve"/>
      <point x="-126" y="-779" type="line"/>
      <point x="-210" y="-852"/>
      <point x="-294" y="-908"/>
      <point x="-425" y="-908" type="curve" smooth="yes"/>
      <point x="-631" y="-908"/>
      <point x="-800" y="-739"/>
      <point x="-800" y="-533" type="curve" smooth="yes"/>
      <point x="-800" y="-327"/>
      <point x="-631" y="-158"/>
    </contour>
  </outline>
</glyph>
<glyph name="cua.sub" format="1">
  <advance width="0"/>
  <unicode hex="EDD5"/>
  <outline>
    <contour>
      <point x="-653" y="-70" type="move" name="_subjoined_consonants"/>
    </contour>
    <contour>
      <point x="-377" y="-173" type="curve" smooth="yes"/>
      <point x="-328" y="-309" type="line"/>
      <point x="-451" y="-383"/>
      <point x="-487" y="-459"/>
      <point x="-487" y="-533" type="curve" smooth="yes"/>
      <point x="-487" y="-547"/>
      <point x="-486" y="-560"/>
      <point x="-484" y="-574" type="curve" smooth="yes"/>
      <point x="-470" y="-660"/>
      <point x="-400" y="-745"/>
      <point x="-334" y="-777" type="curve"/>
      <point x="-397" y="-909" type="line"/>
      <point x="-511" y="-854"/>
      <point x="-606" y="-739"/>
      <point x="-629" y="-598" type="curve" smooth="yes"/>
      <point x="-632" y="-580"/>
      <point x="-633" y="-562"/>
      <point x="-633" y="-543" type="curve" smooth="yes"/>
      <point x="-633" y="-502"/>
      <point x="-626" y="-459"/>
      <point x="-611" y="-418" type="curve"/>
      <point x="-776" y="-525"/>
      <point x="-897" y="-700"/>
      <point x="-915" y="-877" type="curve"/>
      <point x="-1062" y="-870" type="line"/>
      <point x="-1062" y="-193" type="line"/>
      <point x="-915" y="-193" type="line"/>
      <point x="-915" y="-498" type="line"/>
      <point x="-788" y="-329"/>
      <point x="-594" y="-206"/>
    </contour>
  </outline>
</glyph>
<glyph name="tza.sub" format="1">
  <advance width="0"/>
  <unicode hex="EDD6"/>
  <outline>
    <contour>
      <point x="-706" y="-70" type="move" name="_subjoined_consonants"/>
    </contour>
    <contour>
      <point x="-1032" y="-176" type="line"/>
      <point x="-322" y="-176" type="line"/>
      <point x="-771" y="-662" type="line"/>
      <point x="-747" y="-659"/>
      <point x="-724" y="-658"/>
      <point x="-701" y="-658" type="curve" smooth="yes"/>
      <point x="-559" y="-658"/>
      <point x="-422" y="-704"/>
      <point x="-316" y="-782" type="curve"/>
      <point x="-402" y="-901" type="line"/>
      <point x="-483" y="-842"/>
      <point x="-589" y="-806"/>
      <point x="-700" y="-806" type="curve" smooth="yes"/>
      <point x="-800" y="-806"/>
      <point x="-904" y="-835"/>
      <point x="-996" y="-904" type="curve"/>
      <point x="-1094" y="-795" type="line"/>
      <point x="-658" y="-323" type="line"/>
      <point x="-1032" y="-323" type="line"/>
    </contour>
  </outline>
</glyph>
<glyph name="tla.sub" format="1">
  <advance width="0"/>
  <unicode hex="EDD7"/>
  <outline>
    <contour>
      <point x="-580" y="-70" type="move" name="_subjoined_consonants"/>
    </contour>
    <contour>
      <point x="-207" y="-173" type="line"/>
      <point x="-219" y="-257" type="line"/>
      <point x="-219" y="-257"/>
      <point x="-239" y="-411"/>
      <point x="-303" y="-568" type="curve" smooth="yes"/>
      <point x="-309" y="-583"/>
      <point x="-316" y="-598"/>
      <point x="-323" y="-613" type="curve"/>
      <point x="-315" y="-621"/>
      <point x="-307" y="-628"/>
      <point x="-299" y="-636" type="curve" smooth="yes"/>
      <point x="-208" y="-727"/>
      <point x="-151" y="-818"/>
      <point x="-151" y="-818" type="curve"/>
      <point x="-275" y="-897" type="line"/>
      <point x="-275" y="-897"/>
      <point x="-323" y="-821"/>
      <point x="-399" y="-744" type="curve"/>
      <point x="-411" y="-761"/>
      <point x="-424" y="-777"/>
      <point x="-438" y="-792" type="curve" smooth="yes"/>
      <point x="-499" y="-857"/>
      <point x="-584" y="-907"/>
      <point x="-685" y="-907" type="curve" smooth="yes"/>
      <point x="-767" y="-907"/>
      <point x="-836" y="-886"/>
      <point x="-885" y="-845" type="curve" smooth="yes"/>
      <point x="-934" y="-804"/>
      <point x="-960" y="-744"/>
      <point x="-960" y="-686" type="curve" smooth="yes"/>
      <point x="-960" y="-617"/>
      <point x="-927" y="-553"/>
      <point x="-875" y="-510" type="curve" smooth="yes"/>
      <point x="-823" y="-467"/>
      <point x="-753" y="-445"/>
      <point x="-675" y="-445" type="curve" smooth="yes"/>
      <point x="-588" y="-445"/>
      <point x="-510" y="-476"/>
      <point x="-442" y="-519" type="curve"/>
      <point x="-441" y="-517"/>
      <point x="-441" y="-514"/>
      <point x="-440" y="-512" type="curve" smooth="yes"/>
      <point x="-412" y="-442"/>
      <point x="-393" y="-372"/>
      <point x="-381" y="-320" type="curve"/>
      <point x="-898" y="-322" type="line"/>
      <point x="-898" y="-175" type="line"/>
    </contour>
    <contour>
      <point x="-675" y="-592" type="curve" smooth="yes"/>
      <point x="-725" y="-592"/>
      <point x="-761" y="-607"/>
      <point x="-782" y="-624" type="curve" smooth="yes"/>
      <point x="-803" y="-641"/>
      <point x="-813" y="-661"/>
      <point x="-813" y="-686" type="curve" smooth="yes"/>
      <point x="-813" y="-704"/>
      <point x="-808" y="-718"/>
      <point x="-791" y="-732" type="curve" smooth="yes"/>
      <point x="-774" y="-746"/>
      <point x="-742" y="-760"/>
      <point x="-685" y="-760" type="curve" smooth="yes"/>
      <point x="-630" y="-760"/>
      <point x="-588" y="-737"/>
      <point x="-546" y="-692" type="curve" smooth="yes"/>
      <point x="-535" y="-680"/>
      <point x="-524" y="-666"/>
      <point x="-513" y="-651" type="curve"/>
      <point x="-567" y="-616"/>
      <point x="-623" y="-592"/>
    </contour>
  </outline>
</glyph>
<glyph name="cha.sub" format="1">
  <advance width="0"/>
  <unicode hex="EDD8"/>
  <outline>
    <contour>
      <point x="-683" y="-70" type="move" name="_subjoined_consonants"/>
    </contour>
    <contour>
      <point x="-555" y="-518" type="curve" smooth="yes"/>
      <point x="-461" y="-518"/>
      <point x="-378" y="-595"/>
      <point x="-378" y="-691" type="curve" smooth="yes"/>
      <point x="-378" y="-781"/>
      <point x="-445" y="-840"/>
      <point x="-505" y="-866" type="curve" smooth="yes"/>
      <point x="-544" y="-883"/>
      <point x="-584" y="-890"/>
      <point x="-622" y="-893" type="curve"/>
      <point x="-621" y="-978" type="line"/>
      <point x="-768" y="-981" type="line"/>
      <point x="-769" y="-885" type="line"/>
      <point x="-930" y="-847"/>
      <point x="-1049" y="-712"/>
      <point x="-1049" y="-519" type="curve" smooth="yes"/>
      <point x="-1049" y="-317"/>
      <point x="-884" y="-159"/>
      <point x="-678" y="-159" type="curve" smooth="yes"/>
      <point x="-503" y="-159"/>
      <point x="-403" y="-273"/>
      <point x="-403" y="-273" type="curve"/>
      <point x="-516" y="-367" type="line"/>
      <point x="-516" y="-367"/>
      <point x="-562" y="-306"/>
      <point x="-678" y="-306" type="curve" smooth="yes"/>
      <point x="-813" y="-306"/>
      <point x="-902" y="-394"/>
      <point x="-902" y="-519" type="curve" smooth="yes"/>
      <point x="-902" y="-633"/>
      <point x="-849" y="-698"/>
      <point x="-770" y="-730" type="curve"/>
      <point x="-761" y="-620"/>
      <point x="-664" y="-518"/>
    </contour>
    <contour>
      <point x="-525" y="-693" type="curve" smooth="yes"/>
      <point x="-523" y="-672"/>
      <point x="-545" y="-663"/>
      <point x="-565" y="-669" type="curve" smooth="yes"/>
      <point x="-603" y="-680"/>
      <point x="-623" y="-693"/>
      <point x="-624" y="-745" type="curve"/>
      <point x="-583" y="-739"/>
      <point x="-529" y="-726"/>
    </contour>
  </outline>
</glyph>
<glyph name="sa.sub" format="1">
  <advance width="0"/>
  <unicode hex="EDD9"/>
  <outline>
    <contour>
      <point x="-750" y="-70" type="move" name="_subjoined_consonants"/>
    </contour>
    <contour>
      <point x="-1207" y="-533" type="curve" smooth="yes"/>
      <point x="-1207" y="-342"/>
      <point x="-1097" y="-141"/>
      <point x="-891" y="-141" type="curve" smooth="yes"/>
      <point x="-732" y="-141"/>
      <point x="-607" y="-271"/>
      <point x="-607" y="-437" type="curve" smooth="yes"/>
      <point x="-607" y="-472"/>
      <point x="-612" y="-509"/>
      <point x="-624" y="-546" type="curve" smooth="yes"/>
      <point x="-632" y="-570"/>
      <point x="-636" y="-593"/>
      <point x="-636" y="-614" type="curve" smooth="yes"/>
      <point x="-636" y="-707"/>
      <point x="-566" y="-762"/>
      <point x="-496" y="-762" type="curve" smooth="yes"/>
      <point x="-380" y="-762"/>
      <point x="-330" y="-665"/>
      <point x="-330" y="-542" type="curve" smooth="yes"/>
      <point x="-330" y="-409"/>
      <point x="-449" y="-260"/>
      <point x="-449" y="-260" type="curve"/>
      <point x="-338" y="-164" type="line"/>
      <point x="-338" y="-164"/>
      <point x="-183" y="-331"/>
      <point x="-183" y="-542" type="curve" smooth="yes"/>
      <point x="-183" y="-740"/>
      <point x="-298" y="-909"/>
      <point x="-496" y="-909" type="curve" smooth="yes"/>
      <point x="-651" y="-909"/>
      <point x="-781" y="-774"/>
      <point x="-781" y="-606" type="curve" smooth="yes"/>
      <point x="-781" y="-572"/>
      <point x="-775" y="-537"/>
      <point x="-764" y="-501" type="curve" smooth="yes"/>
      <point x="-757" y="-478"/>
      <point x="-753" y="-456"/>
      <point x="-753" y="-435" type="curve" smooth="yes"/>
      <point x="-753" y="-351"/>
      <point x="-809" y="-289"/>
      <point x="-891" y="-289" type="curve" smooth="yes"/>
      <point x="-956" y="-289"/>
      <point x="-988" y="-317"/>
      <point x="-1017" y="-365" type="curve" smooth="yes"/>
      <point x="-1046" y="-413"/>
      <point x="-1060" y="-483"/>
      <point x="-1060" y="-533" type="curve" smooth="yes"/>
      <point x="-1060" y="-677"/>
      <point x="-963" y="-814"/>
      <point x="-963" y="-814" type="curve"/>
      <point x="-1082" y="-901" type="line"/>
      <point x="-1082" y="-901"/>
      <point x="-1207" y="-739"/>
    </contour>
  </outline>
</glyph>
<glyph name="xa.sub" format="1">
  <advance width="0"/>
  <unicode hex="EDDA"/>
  <outline>
    <contour>
      <point x="-715" y="-70" type="move" name="_subjoined_consonants"/>
    </contour>
    <contour>
      <point x="-1239" y="-843" type="line"/>
      <point x="-1239" y="-843"/>
      <point x="-1174" y="-684"/>
      <point x="-1070" y="-533" type="curve"/>
      <point x="-1173" y="-382"/>
      <point x="-1239" y="-220"/>
      <point x="-1239" y="-220" type="curve"/>
      <point x="-1102" y="-165" type="line"/>
      <point x="-1102" y="-165"/>
      <point x="-1055" y="-283"/>
      <point x="-975" y="-409" type="curve"/>
      <point x="-880" y="-301"/>
      <point x="-761" y="-213"/>
      <point x="-612" y="-213" type="curve" smooth="yes"/>
      <point x="-357" y="-213"/>
      <point x="-228" y="-393"/>
      <point x="-228" y="-535" type="curve" smooth="yes"/>
      <point x="-228" y="-675"/>
      <point x="-355" y="-853"/>
      <point x="-612" y="-853" type="curve" smooth="yes"/>
      <point x="-761" y="-853"/>
      <point x="-881" y="-763"/>
      <point x="-975" y="-656" type="curve"/>
      <point x="-1055" y="-782"/>
      <point x="-1102" y="-898"/>
      <point x="-1102" y="-898" type="curve"/>
    </contour>
    <contour>
      <point x="-612" y="-360" type="curve" smooth="yes"/>
      <point x="-703" y="-360"/>
      <point x="-801" y="-434"/>
      <point x="-885" y="-533" type="curve"/>
      <point x="-802" y="-631"/>
      <point x="-704" y="-706"/>
      <point x="-612" y="-706" type="curve" smooth="yes"/>
      <point x="-419" y="-706"/>
      <point x="-375" y="-590"/>
      <point x="-375" y="-535" type="curve" smooth="yes"/>
      <point x="-375" y="-482"/>
      <point x="-424" y="-360"/>
    </contour>
  </outline>
</glyph>
<glyph name="ha.sub" format="1">
  <advance width="0"/>
  <unicode hex="EDDB"/>
  <outline>
    <contour>
      <point x="-689" y="-70" type="move" name="_subjoined_consonants"/>
    </contour>
    <contour>
      <point x="-561" y="-523" type="curve" smooth="yes"/>
      <point x="-561" y="-593"/>
      <point x="-617" y="-649"/>
      <point x="-687" y="-649" type="curve" smooth="yes"/>
      <point x="-757" y="-649"/>
      <point x="-813" y="-593"/>
      <point x="-813" y="-523" type="curve" smooth="yes"/>
      <point x="-813" y="-453"/>
      <point x="-757" y="-397"/>
      <point x="-687" y="-397" type="curve" smooth="yes"/>
      <point x="-617" y="-397"/>
      <point x="-561" y="-453"/>
    </contour>
  </outline>
</glyph>
<glyph name="la.sub" format="1">
  <advance width="0"/>
  <unicode hex="EDDC"/>
  <outline>
    <contour>
      <point x="-704" y="-70" type="move" name="_subjoined_consonants"/>
    </contour>
    <contour>
      <point x="-920" y="-429" type="curve" smooth="yes"/>
      <point x="-920" y="-299"/>
      <point x="-841" y="-160"/>
      <point x="-708" y="-160" type="curve" smooth="yes"/>
      <point x="-575" y="-160"/>
      <point x="-496" y="-299"/>
      <point x="-496" y="-429" type="curve" smooth="yes"/>
      <point x="-496" y="-524"/>
      <point x="-541" y="-604"/>
      <point x="-599" y="-670" type="curve"/>
      <point x="-516" y="-733"/>
      <point x="-436" y="-772"/>
      <point x="-436" y="-772" type="curve"/>
      <point x="-501" y="-904" type="line"/>
      <point x="-501" y="-904"/>
      <point x="-609" y="-850"/>
      <point x="-708" y="-771" type="curve"/>
      <point x="-806" y="-849"/>
      <point x="-917" y="-905"/>
      <point x="-917" y="-905" type="curve"/>
      <point x="-981" y="-772" type="line"/>
      <point x="-981" y="-772"/>
      <point x="-900" y="-733"/>
      <point x="-817" y="-670" type="curve"/>
      <point x="-875" y="-604"/>
      <point x="-920" y="-524"/>
    </contour>
    <contour>
      <point x="-644" y="-429" type="curve" smooth="yes"/>
      <point x="-644" y="-385"/>
      <point x="-669" y="-307"/>
      <point x="-708" y="-307" type="curve" smooth="yes"/>
      <point x="-747" y="-307"/>
      <point x="-773" y="-385"/>
      <point x="-773" y="-429" type="curve" smooth="yes"/>
      <point x="-773" y="-470"/>
      <point x="-747" y="-519"/>
      <point x="-708" y="-567" type="curve"/>
      <point x="-669" y="-520"/>
      <point x="-644" y="-471"/>
    </contour>
  </outline>
</glyph>
<glyph name="ya.sub" format="1">
  <advance width="0"/>
  <unicode hex="EDDD"/>
  <outline>
    <contour>
      <point x="-677" y="-70" type="move" name="_subjoined_consonants"/>
    </contour>
    <contour>
      <point x="-1045" y="-170" type="curve"/>
      <point x="-910" y="-229" type="line"/>
      <point x="-942" y="-301"/>
      <point x="-958" y="-379"/>
      <point x="-958" y="-452" type="curve" smooth="yes"/>
      <point x="-958" y="-504"/>
      <point x="-950" y="-554"/>
      <point x="-934" y="-596" type="curve" smooth="yes"/>
      <point x="-896" y="-697"/>
      <point x="-828" y="-760"/>
      <point x="-696" y="-760" type="curve" smooth="yes"/>
      <point x="-564" y="-760"/>
      <point x="-498" y="-697"/>
      <point x="-461" y="-596" type="curve" smooth="yes"/>
      <point x="-445" y="-553"/>
      <point x="-437" y="-504"/>
      <point x="-437" y="-451" type="curve" smooth="yes"/>
      <point x="-437" y="-378"/>
      <point x="-452" y="-300"/>
      <point x="-483" y="-228" type="curve"/>
      <point x="-347" y="-171" type="line"/>
      <point x="-308" y="-263"/>
      <point x="-289" y="-357"/>
      <point x="-289" y="-447" type="curve" smooth="yes"/>
      <point x="-289" y="-697"/>
      <point x="-436" y="-907"/>
      <point x="-696" y="-907" type="curve" smooth="yes"/>
      <point x="-956" y="-907"/>
      <point x="-1105" y="-697"/>
      <point x="-1105" y="-448" type="curve" smooth="yes"/>
      <point x="-1105" y="-358"/>
      <point x="-1086" y="-263"/>
    </contour>
  </outline>
</glyph>
<glyph name="wa.sub" format="1">
  <advance width="0"/>
  <unicode hex="EDDE"/>
  <outline>
    <contour>
      <point x="-683" y="-70" type="move" name="_subjoined_consonants"/>
    </contour>
    <contour>
      <point x="-689" y="-782" type="curve"/>
      <point x="-737" y="-852"/>
      <point x="-819" y="-906"/>
      <point x="-931" y="-906" type="curve" smooth="yes"/>
      <point x="-1128" y="-906"/>
      <point x="-1260" y="-742"/>
      <point x="-1260" y="-565" type="curve" smooth="yes"/>
      <point x="-1260" y="-306"/>
      <point x="-1066" y="-162"/>
      <point x="-1066" y="-162" type="curve"/>
      <point x="-978" y="-280" type="line"/>
      <point x="-978" y="-280"/>
      <point x="-1113" y="-379"/>
      <point x="-1113" y="-565" type="curve" smooth="yes"/>
      <point x="-1113" y="-675"/>
      <point x="-1050" y="-759"/>
      <point x="-931" y="-759" type="curve" smooth="yes"/>
      <point x="-801" y="-759"/>
      <point x="-765" y="-633"/>
      <point x="-763" y="-515" type="curve" smooth="yes"/>
      <point x="-763" y="-496"/>
      <point x="-763" y="-483"/>
      <point x="-763" y="-483" type="curve"/>
      <point x="-616" y="-482" type="line"/>
      <point x="-616" y="-482"/>
      <point x="-616" y="-496"/>
      <point x="-616" y="-515" type="curve" smooth="yes"/>
      <point x="-613" y="-631"/>
      <point x="-578" y="-759"/>
      <point x="-449" y="-759" type="curve" smooth="yes"/>
      <point x="-330" y="-759"/>
      <point x="-267" y="-675"/>
      <point x="-267" y="-565" type="curve" smooth="yes"/>
      <point x="-267" y="-379"/>
      <point x="-401" y="-280"/>
      <point x="-401" y="-280" type="curve"/>
      <point x="-314" y="-162" type="line"/>
      <point x="-314" y="-162"/>
      <point x="-120" y="-306"/>
      <point x="-120" y="-565" type="curve" smooth="yes"/>
      <point x="-120" y="-742"/>
      <point x="-252" y="-906"/>
      <point x="-449" y="-906" type="curve" smooth="yes"/>
      <point x="-560" y="-906"/>
      <point x="-641" y="-852"/>
    </contour>
  </outline>
</glyph>
<glyph name="nya.sub" format="1">
  <advance width="0"/>
  <unicode hex="EDE0"/>
  <outline>
    <contour>
      <point x="-650" y="-70" type="move" name="_subjoined_consonants"/>
    </contour>
    <contour>
      <point x="-310" y="-285" type="line"/>
      <point x="-385" y="-321"/>
      <point x="-464" y="-417"/>
      <point x="-464" y="-528" type="curve" smooth="yes"/>
      <point x="-464" y="-602"/>
      <point x="-427" y="-679"/>
      <point x="-304" y="-753" type="curve"/>
      <point x="-353" y="-889" type="line"/>
      <point x="-570" y="-856"/>
      <point x="-765" y="-732"/>
      <point x="-892" y="-563" type="curve"/>
      <point x="-892" y="-869" type="line"/>
      <point x="-1039" y="-869" type="line"/>
      <point x="-1039" y="-192" type="line"/>
      <point x="-892" y="-184" type="line"/>
      <point x="-874" y="-361"/>
      <point x="-752" y="-536"/>
      <point x="-587" y="-643" type="curve"/>
      <point x="-603" y="-601"/>
      <point x="-610" y="-559"/>
      <point x="-610" y="-518" type="curve" smooth="yes"/>
      <point x="-610" y="-500"/>
      <point x="-609" y="-481"/>
      <point x="-606" y="-463" type="curve" smooth="yes"/>
      <point x="-583" y="-322"/>
      <point x="-488" y="-207"/>
      <point x="-374" y="-152" type="curve"/>
    </contour>
  </outline>
</glyph>
<glyph name="bva.sub" format="1">
  <advance width="0"/>
  <unicode hex="EDE1"/>
  <outline>
    <contour>
      <point x="-485" y="-70" type="move" name="_subjoined_consonants"/>
    </contour>
    <contour>
      <point x="-770" y="-162" type="line"/>
      <point x="-770" y="-162"/>
      <point x="-662" y="-244"/>
      <point x="-554" y="-353" type="curve" smooth="yes"/>
      <point x="-535" y="-372"/>
      <point x="-516" y="-393"/>
      <point x="-497" y="-414" type="curve"/>
      <point x="-479" y="-394"/>
      <point x="-462" y="-374"/>
      <point x="-444" y="-355" type="curve" smooth="yes"/>
      <point x="-342" y="-246"/>
      <point x="-241" y="-164"/>
      <point x="-241" y="-164" type="curve"/>
      <point x="-149" y="-278" type="line"/>
      <point x="-149" y="-278"/>
      <point x="-243" y="-354"/>
      <point x="-336" y="-455" type="curve" smooth="yes"/>
      <point x="-359" y="-480"/>
      <point x="-381" y="-507"/>
      <point x="-402" y="-534" type="curve"/>
      <point x="-359" y="-599"/>
      <point x="-325" y="-666"/>
      <point x="-325" y="-742" type="curve" smooth="yes"/>
      <point x="-325" y="-841"/>
      <point x="-409" y="-906"/>
      <point x="-493" y="-906" type="curve" smooth="yes"/>
      <point x="-577" y="-906"/>
      <point x="-659" y="-839"/>
      <point x="-659" y="-742" type="curve" smooth="yes"/>
      <point x="-659" y="-667"/>
      <point x="-630" y="-598"/>
      <point x="-589" y="-533" type="curve"/>
      <point x="-611" y="-507"/>
      <point x="-635" y="-481"/>
      <point x="-659" y="-457" type="curve" smooth="yes"/>
      <point x="-759" y="-356"/>
      <point x="-859" y="-279"/>
      <point x="-859" y="-279" type="curve"/>
    </contour>
    <contour>
      <point x="-491" y="-676" type="curve"/>
      <point x="-504" y="-703"/>
      <point x="-512" y="-726"/>
      <point x="-512" y="-742" type="curve" smooth="yes"/>
      <point x="-512" y="-753"/>
      <point x="-499" y="-759"/>
      <point x="-493" y="-759" type="curve" smooth="yes"/>
      <point x="-487" y="-759"/>
      <point x="-472" y="-751"/>
      <point x="-472" y="-742" type="curve" smooth="yes"/>
      <point x="-472" y="-726"/>
      <point x="-479" y="-704"/>
    </contour>
  </outline>
</glyph>
<glyph name="da.sub" format="1">
  <advance width="0"/>
  <unicode hex="EDE2"/>
  <outline>
    <contour>
      <point x="-525" y="-70" type="move" name="_subjoined_consonants"/>
    </contour>
    <contour>
      <point x="-306" y="-472" type="curve"/>
      <point x="-324" y="-375"/>
      <point x="-428" y="-302"/>
      <point x="-530" y="-302" type="curve" smooth="yes"/>
      <point x="-684" y="-302"/>
      <point x="-748" y="-419"/>
      <point x="-748" y="-419" type="curve"/>
      <point x="-875" y="-345" type="line"/>
      <point x="-875" y="-345"/>
      <point x="-762" y="-155"/>
      <point x="-530" y="-155" type="curve" smooth="yes"/>
      <point x="-334" y="-155"/>
      <point x="-155" y="-305"/>
      <point x="-155" y="-511" type="curve" smooth="yes"/>
      <point x="-155" y="-634"/>
      <point x="-191" y="-735"/>
      <point x="-258" y="-804" type="curve" smooth="yes"/>
      <point x="-325" y="-873"/>
      <point x="-419" y="-905"/>
      <point x="-516" y="-905" type="curve" smooth="yes"/>
      <point x="-691" y="-905"/>
      <point x="-849" y="-821"/>
      <point x="-849" y="-654" type="curve" smooth="yes"/>
      <point x="-849" y="-501"/>
      <point x="-682" y="-414"/>
      <point x="-528" y="-414" type="curve" smooth="yes"/>
      <point x="-439" y="-414"/>
      <point x="-363" y="-434"/>
    </contour>
    <contour>
      <point x="-528" y="-561" type="curve" smooth="yes"/>
      <point x="-597" y="-561"/>
      <point x="-702" y="-596"/>
      <point x="-702" y="-654" type="curve" smooth="yes"/>
      <point x="-702" y="-684"/>
      <point x="-692" y="-702"/>
      <point x="-664" y="-722" type="curve" smooth="yes"/>
      <point x="-636" y="-742"/>
      <point x="-587" y="-758"/>
      <point x="-516" y="-758" type="curve" smooth="yes"/>
      <point x="-441" y="-758"/>
      <point x="-386" y="-732"/>
      <point x="-351" y="-687" type="curve" smooth="yes"/>
      <point x="-348" y="-677"/>
      <point x="-347" y="-668"/>
      <point x="-347" y="-660" type="curve" smooth="yes"/>
      <point x="-347" y="-642"/>
      <point x="-354" y="-626"/>
      <point x="-368" y="-611" type="curve" smooth="yes"/>
      <point x="-391" y="-587"/>
      <point x="-441" y="-561"/>
    </contour>
  </outline>
</glyph>
<glyph name="ga.sub" format="1">
  <advance width="0"/>
  <unicode hex="EDE3"/>
  <outline>
    <contour>
      <point x="-722" y="-70" type="move" name="_subjoined_consonants"/>
    </contour>
    <contour>
      <point x="-856" y="-156" type="curve" smooth="yes"/>
      <point x="-725" y="-156"/>
      <point x="-641" y="-255"/>
      <point x="-641" y="-383" type="curve" smooth="yes"/>
      <point x="-641" y="-752" type="line"/>
      <point x="-516" y="-730"/>
      <point x="-401" y="-651"/>
      <point x="-401" y="-519" type="curve" smooth="yes"/>
      <point x="-401" y="-396"/>
      <point x="-451" y="-329"/>
      <point x="-533" y="-291" type="curve"/>
      <point x="-472" y="-157" type="line"/>
      <point x="-343" y="-217"/>
      <point x="-254" y="-350"/>
      <point x="-254" y="-519" type="curve" smooth="yes"/>
      <point x="-254" y="-756"/>
      <point x="-475" y="-906"/>
      <point x="-716" y="-906" type="curve" smooth="yes"/>
      <point x="-968" y="-906"/>
      <point x="-1177" y="-717"/>
      <point x="-1177" y="-500" type="curve" smooth="yes"/>
      <point x="-1177" y="-323"/>
      <point x="-1056" y="-200"/>
      <point x="-928" y="-166" type="curve" smooth="yes"/>
      <point x="-904" y="-160"/>
      <point x="-880" y="-156"/>
    </contour>
    <contour>
      <point x="-816" y="-313" type="curve" smooth="yes"/>
      <point x="-825" y="-307"/>
      <point x="-840" y="-304"/>
      <point x="-856" y="-304" type="curve" smooth="yes"/>
      <point x="-867" y="-304"/>
      <point x="-880" y="-305"/>
      <point x="-890" y="-308" type="curve" smooth="yes"/>
      <point x="-956" y="-326"/>
      <point x="-1030" y="-390"/>
      <point x="-1030" y="-500" type="curve" smooth="yes"/>
      <point x="-1030" y="-598"/>
      <point x="-929" y="-718"/>
      <point x="-789" y="-750" type="curve"/>
      <point x="-789" y="-383" type="line" smooth="yes"/>
      <point x="-789" y="-337"/>
      <point x="-801" y="-322"/>
    </contour>
  </outline>
</glyph>
<glyph name="fa.sub" format="1">
  <advance width="0"/>
  <unicode hex="EDE4"/>
  <outline>
    <contour>
      <point x="-465" y="-70" type="move" name="_subjoined_consonants"/>
    </contour>
    <contour>
      <point x="-743" y="-659" type="line" smooth="yes"/>
      <point x="-743" y="-521"/>
      <point x="-633" y="-423"/>
      <point x="-493" y="-423" type="curve" smooth="yes"/>
      <point x="-447" y="-423"/>
      <point x="-401" y="-423"/>
      <point x="-355" y="-423" type="curve" smooth="yes"/>
      <point x="-354" y="-423"/>
      <point x="-354" y="-423"/>
      <point x="-353" y="-423" type="curve" smooth="yes"/>
      <point x="-298" y="-423"/>
      <point x="-291" y="-402"/>
      <point x="-291" y="-382" type="curve" smooth="yes"/>
      <point x="-291" y="-363"/>
      <point x="-302" y="-333"/>
      <point x="-374" y="-317" type="curve" smooth="yes"/>
      <point x="-408" y="-310"/>
      <point x="-447" y="-306"/>
      <point x="-488" y="-306" type="curve" smooth="yes"/>
      <point x="-590" y="-306"/>
      <point x="-698" y="-325"/>
      <point x="-738" y="-339" type="curve"/>
      <point x="-787" y="-200" type="line"/>
      <point x="-723" y="-177"/>
      <point x="-617" y="-156"/>
      <point x="-505" y="-156" type="curve" smooth="yes"/>
      <point x="-503" y="-156"/>
      <point x="-501" y="-156"/>
      <point x="-499" y="-156" type="curve" smooth="yes"/>
      <point x="-447" y="-156"/>
      <point x="-393" y="-162"/>
      <point x="-342" y="-173" type="curve" smooth="yes"/>
      <point x="-221" y="-200"/>
      <point x="-144" y="-289"/>
      <point x="-144" y="-383" type="curve" smooth="yes"/>
      <point x="-144" y="-486"/>
      <point x="-238" y="-570"/>
      <point x="-354" y="-570" type="curve" smooth="yes"/>
      <point x="-355" y="-570"/>
      <point x="-355" y="-570"/>
      <point x="-356" y="-570" type="curve" smooth="yes"/>
      <point x="-493" y="-570" type="line" smooth="yes"/>
      <point x="-557" y="-570"/>
      <point x="-596" y="-600"/>
      <point x="-596" y="-659" type="curve" smooth="yes"/>
      <point x="-596" y="-870" type="line"/>
      <point x="-743" y="-870" type="line"/>
    </contour>
  </outline>
</glyph>
<glyph name="ra.sub" format="1">
  <advance width="0"/>
  <unicode hex="EDE5"/>
  <outline>
    <contour>
      <point x="-668" y="-70" type="move" name="_subjoined_consonants"/>
    </contour>
    <contour>
      <point x="-531" y="-383" type="curve" smooth="yes"/>
      <point x="-531" y="-329"/>
      <point x="-629" y="-307"/>
      <point x="-686" y="-307" type="curve" smooth="yes"/>
      <point x="-802" y="-307"/>
      <point x="-849" y="-375"/>
      <point x="-849" y="-443" type="curve" smooth="yes"/>
      <point x="-849" y="-870" type="line"/>
      <point x="-996" y="-870" type="line"/>
      <point x="-996" y="-443" type="line" smooth="yes"/>
      <point x="-996" y="-296"/>
      <point x="-869" y="-160"/>
      <point x="-686" y="-160" type="curve" smooth="yes"/>
      <point x="-543" y="-160"/>
      <point x="-384" y="-233"/>
      <point x="-384" y="-383" type="curve" smooth="yes"/>
      <point x="-384" y="-445"/>
      <point x="-418" y="-502"/>
      <point x="-460" y="-529" type="curve" smooth="yes"/>
      <point x="-523" y="-569"/>
      <point x="-589" y="-564"/>
      <point x="-653" y="-582" type="curve"/>
      <point x="-650" y="-597"/>
      <point x="-641" y="-614"/>
      <point x="-621" y="-634" type="curve" smooth="yes"/>
      <point x="-596" y="-659"/>
      <point x="-558" y="-684"/>
      <point x="-518" y="-705" type="curve" smooth="yes"/>
      <point x="-438" y="-746"/>
      <point x="-356" y="-770"/>
      <point x="-356" y="-770" type="curve"/>
      <point x="-395" y="-912" type="line"/>
      <point x="-517" y="-879"/>
      <point x="-801" y="-766"/>
      <point x="-801" y="-571" type="curve" smooth="yes"/>
      <point x="-801" y="-509"/>
      <point x="-757" y="-464"/>
      <point x="-713" y="-446" type="curve" smooth="yes"/>
      <point x="-657" y="-424"/>
      <point x="-578" y="-430"/>
      <point x="-539" y="-405" type="curve" smooth="yes"/>
      <point x="-531" y="-400"/>
      <point x="-531" y="-406"/>
    </contour>
  </outline>
</glyph>
<glyph name="rra.sub" format="1">
  <advance width="0"/>
  <unicode hex="EDE6"/>
  <outline>
    <contour>
      <point x="-695" y="-70" type="move" name="_subjoined_consonants"/>
    </contour>
    <contour>
      <point x="-958" y="-906" type="curve" smooth="yes"/>
      <point x="-1069" y="-906"/>
      <point x="-1148" y="-818"/>
      <point x="-1148" y="-705" type="curve" smooth="yes"/>
      <point x="-1148" y="-193" type="line"/>
      <point x="-1001" y="-193" type="line"/>
      <point x="-1001" y="-705" type="line" smooth="yes"/>
      <point x="-1001" y="-744"/>
      <point x="-991" y="-758"/>
      <point x="-959" y="-759" type="curve" smooth="yes"/>
      <point x="-943" y="-759"/>
      <point x="-939" y="-756"/>
      <point x="-934" y="-751" type="curve" smooth="yes"/>
      <point x="-929" y="-746"/>
      <point x="-923" y="-734"/>
      <point x="-923" y="-706" type="curve" smooth="yes"/>
      <point x="-923" y="-443" type="line" smooth="yes"/>
      <point x="-923" y="-296"/>
      <point x="-796" y="-160"/>
      <point x="-613" y="-160" type="curve" smooth="yes"/>
      <point x="-470" y="-160"/>
      <point x="-310" y="-233"/>
      <point x="-310" y="-383" type="curve" smooth="yes"/>
      <point x="-310" y="-445"/>
      <point x="-344" y="-502"/>
      <point x="-386" y="-529" type="curve" smooth="yes"/>
      <point x="-449" y="-569"/>
      <point x="-516" y="-564"/>
      <point x="-580" y="-582" type="curve"/>
      <point x="-577" y="-597"/>
      <point x="-568" y="-613"/>
      <point x="-548" y="-633" type="curve" smooth="yes"/>
      <point x="-524" y="-657"/>
      <point x="-485" y="-682"/>
      <point x="-445" y="-702" type="curve" smooth="yes"/>
      <point x="-365" y="-742"/>
      <point x="-284" y="-763"/>
      <point x="-284" y="-763" type="curve"/>
      <point x="-320" y="-906" type="line"/>
      <point x="-444" y="-875"/>
      <point x="-728" y="-766"/>
      <point x="-728" y="-571" type="curve" smooth="yes"/>
      <point x="-728" y="-509"/>
      <point x="-683" y="-464"/>
      <point x="-639" y="-446" type="curve" smooth="yes"/>
      <point x="-583" y="-424"/>
      <point x="-505" y="-430"/>
      <point x="-466" y="-405" type="curve" smooth="yes"/>
      <point x="-458" y="-400"/>
      <point x="-457" y="-406"/>
      <point x="-457" y="-383" type="curve" smooth="yes"/>
      <point x="-457" y="-329"/>
      <point x="-556" y="-307"/>
      <point x="-613" y="-307" type="curve" smooth="yes"/>
      <point x="-729" y="-307"/>
      <point x="-776" y="-375"/>
      <point x="-776" y="-443" type="curve" smooth="yes"/>
      <point x="-776" y="-706" type="line" smooth="yes"/>
      <point x="-776" y="-761"/>
      <point x="-791" y="-812"/>
      <point x="-826" y="-850" type="curve" smooth="yes"/>
      <point x="-860" y="-887"/>
      <point x="-909" y="-906"/>
    </contour>
  </outline>
</glyph>
<glyph name="medial.L" format="1">
  <advance width="2048"/>
  <unicode hex="EDE8"/>
  <outline>
    <contour>
      <point x="-520" y="-70" type="move" name="_subjoined_consonants"/>
    </contour>
    <contour>
      <point x="-519.515" y="138.553" type="curve"/>
      <point x="-438.917" y="18.2646" type="line"/>
      <point x="-616.38" y="-95.2207"/>
      <point x="-694.258" y="-160.236"/>
      <point x="-769.949" y="-204.89" type="curve" smooth="yes"/>
      <point x="-845.638" y="-249.543"/>
      <point x="-919.883" y="-265.945"/>
      <point x="-1042.71" y="-269.356" type="curve"/>
      <point x="-1046.88" y="-125.646" type="line"/>
      <point x="-932.549" y="-122.472"/>
      <point x="-903.888" y="-115.961"/>
      <point x="-846.021" y="-81.8213" type="curve" smooth="yes"/>
      <point x="-788.155" y="-47.6836"/>
      <point x="-701.825" y="21.9668"/>
    </contour>
  </outline>
</glyph>
<glyph name="medial.R" format="1">
  <advance width="2048"/>
  <unicode hex="EDE9"/>
  <outline>
    <contour>
      <point x="-520" y="-70" type="move" name="_subjoined_consonants"/>
    </contour>
    <contour>
      <point x="-520.485" y="138.553" type="curve"/>
      <point x="-601.083" y="18.2646" type="line"/>
      <point x="-423.62" y="-95.2207"/>
      <point x="-345.742" y="-160.236"/>
      <point x="-270.051" y="-204.89" type="curve" smooth="yes"/>
      <point x="-194.362" y="-249.543"/>
      <point x="-120.117" y="-265.945"/>
      <point x="2.70508" y="-269.356" type="curve"/>
      <point x="6.88477" y="-125.646" type="line"/>
      <point x="-107.451" y="-122.472"/>
      <point x="-136.112" y="-115.961"/>
      <point x="-193.979" y="-81.8213" type="curve" smooth="yes"/>
      <point x="-251.845" y="-47.6836"/>
      <point x="-338.175" y="21.9668"/>
    </contour>
  </outline>
</glyph>
<glyph name="aa.vs.long" format="1">
  <advance width="2048"/>
  <unicode hex="EDF0"/>
  <outline>
    <contour>
      <point x="-434" y="1020" type="move" name="_vowel_signs"/>
    </contour>
    <component base="aa.vs" xOffset="-319"/>
    <component base="long_vowel_dot" xOffset="11"/>
  </outline>
</glyph>
<glyph name="ee.vs.long" format="1">
  <advance width="2048"/>
  <unicode hex="EDF1"/>
  <outline>
    <contour>
      <point x="-571" y="1020" type="move" name="_vowel_signs"/>
    </contour>
    <component base="ee.vs" xOffset="-369"/>
    <component base="long_vowel_dot" xOffset="17"/>
  </outline>
</glyph>
<glyph name="ii.vs.long" format="1">
  <advance width="0"/>
  <unicode hex="EDF2"/>
  <outline>
    <contour>
      <point x="-256" y="1020" type="move" name="_vowel_signs"/>
    </contour>
    <component base="ii.vs" xOffset="251"/>
    <component base="long_vowel_dot" xOffset="571" yOffset="-120"/>
  </outline>
</glyph>
<glyph name="oo.vs.long" format="1">
  <advance width="0"/>
  <unicode hex="EDF3"/>
  <outline>
    <contour>
      <point x="-372" y="1020" type="move" name="_vowel_signs"/>
    </contour>
    <component base="oo.vs" xOffset="148"/>
    <component base="long_vowel_dot" xOffset="568" yOffset="-10"/>
  </outline>
</glyph>
<glyph name="uu.vs.long" format="1">
  <advance width="0"/>
  <unicode hex="EDF4"/>
  <outline>
    <contour>
      <point x="-373" y="1020" type="move" name="_vowel_signs"/>
    </contour>
    <component base="uu.vs" xOffset="163"/>
    <component base="long_vowel_dot" xOffset="573" yOffset="-80"/>
  </outline>
</glyph>
